<?xml version="1.0" encoding="utf-8"?>
<svg id="master-artboard" viewBox="0 0 1400 980" version="1.1" xmlns="http://www.w3.org/2000/svg" x="0px" y="0px" style="enable-background:new 0 0 336 235.2;" width="1400px" height="980px"><defs><linearGradient id="linear-gradient" x1="601" y1="490" x2="1599.13" y2="490" gradientUnits="userSpaceOnUse"><stop offset="0" stop-color="#212121"/><stop offset="1" stop-color="#424242"/></linearGradient></defs><g transform="matrix(0.9999998256138393, 0, 0, 0.9999998256138393, -0.000007604852271470008, 0.00008798416968147649)"><title>rings of saturn asteroids flat illustration</title><path d="M 0 0 H 1400 V 980 H 0 V 0 Z" class="cls-1" style="fill: url('#linear-gradient');"/><path class="cls-2" d="M207.8,1.1h0l-1-1.1H0V980H521.07a1242,1242,0,0,0,9-149.63C530.09,510.72,407.94,219.59,207.8,1.1Z" style="fill: rgb(255, 171, 145);"/><path class="cls-3" d="M152,305c-9.1-56.88-97.57-78.67-152-83.26V511.81C84,486.17,162.61,371.34,152,305Z" style="fill: rgb(255, 138, 101);"/><path class="cls-3" d="M337.67,453.67c-.34,9.66,4.66,28.66,29,28.66s37.42-55,32.66-67.33C391.33,394.33,338,444,337.67,453.67Z" style="fill: rgb(255, 138, 101);"/><path class="cls-4" d="M425.65,334.08c.07,1.58,6.05,137.08-44.65,163.92-51,27-85-97-155-87.5C163.32,419,91.81,594.69,0,595.43V844.17c140.5,94,215.37-254.33,247-306.17,36-59,77-21,140-21,36.19,0,63.13-41.9,79.52-77.57Q448.45,385.61,425.65,334.08Z" style="fill: rgb(255, 112, 67);"/><path class="cls-3" d="M490.08,518.43C452,558.53,377.64,628,310.65,638.58c-95,15-134.84,130.5-157.68,202.49-18.74,59-81.1,136.72-153,112.76V980H521.07a1242,1242,0,0,0,9-149.63A1229.66,1229.66,0,0,0,490.08,518.43Z" style="fill: rgb(255, 138, 101);"/><path class="cls-3" d="M342.5,531.5c-7.28,0-61-16.5-80.5,25s25.5,47,51,28.5S374.5,531.5,342.5,531.5Z" style="fill: rgb(255, 138, 101);"/><path class="cls-4" d="M712.66,118.93a56.62,56.62,0,0,0-9.75-17c-6.6,10.92-14.92,20.37-23.25,31-7,11,0,20,11,22,7.63,1.1,14.67-.79,21.6-1.91C716.73,142.41,716.68,129.85,712.66,118.93Z" style="fill: rgb(255, 112, 67);"/><path class="cls-3" d="M690.66,154.93c-11-2-18-11-11-22,8.33-10.6,16.65-20.05,23.25-31a62.94,62.94,0,0,0-20.25-16,82.23,82.23,0,0,0-13-5.75c-2.66,1-5.29,2-7.93,3.08-3.93,1.57-8,3.27-11.28,5.86a33.4,33.4,0,0,1,.21,3.81c1,21-16,45,5,58,10.79,6.25,22.88,8.95,35.34,10.85,1.13-.4,2.26-.83,3.38-1.27l12.12-4.71a37.71,37.71,0,0,0,5.7-2.62l.06-.16C705.33,154.14,698.29,156,690.66,154.93Z" style="fill: rgb(255, 138, 101);"/><path class="cls-4" d="M650.66,92.93a33.4,33.4,0,0,0-.21-3.81,17.73,17.73,0,0,0-3.51,3.57,31.69,31.69,0,0,0-3.75,8.06l-3.82,10.78a45.43,45.43,0,0,0-2.64,9.65c-1.26,10.44,4.69,20.18,8,30.14a12.45,12.45,0,0,0,2.27,4.68c1.42,1.54,3.54,2.17,5.57,2.69a178.19,178.19,0,0,0,21.21,4.16c4.24.56,8.57,1,12.76.17a32.47,32.47,0,0,0,4.41-1.24c-12.46-1.9-24.55-4.6-35.34-10.85C634.66,137.93,651.66,113.93,650.66,92.93Z" style="fill: rgb(255, 112, 67);"/><path class="cls-2" d="M712.2,153.18l.29-.2-.23,0Z" style="fill: rgb(255, 171, 145);"/><path class="cls-3" d="M719.85,136.09c.28-3.19.56-6.39.83-9.58.36-4.09.71-8.33-.63-12.22a29.66,29.66,0,0,0-4-7.08l-8.95-12.93c-1.3,2.65-2.71,5.21-4.2,7.68a56.62,56.62,0,0,1,9.75,17c4,10.92,4.07,23.48-.4,34.09l.23,0a13.49,13.49,0,0,0,2.43-1.9C718.7,147.26,719.38,141.44,719.85,136.09Z" style="fill: rgb(255, 138, 101);"/><path class="cls-2" d="M706.9,94c-1.71-2.47-2.11-3.65-4.34-5.66a62.92,62.92,0,0,1-4.94-4.84c-3.42-3.45-7.29-7.12-12.13-7.39a17.59,17.59,0,0,0-5.29.72,107.64,107.64,0,0,0-10.54,3.37,82.23,82.23,0,0,1,13,5.75,62.94,62.94,0,0,1,20.25,16c1.49-2.47,2.9-5,4.2-7.68Z" style="fill: rgb(255, 171, 145);"/><path class="cls-3" d="M700.83,131.61c13.08,13.77,29,12.84,43.88,5.7.32-.84.65-1.68,1-2.5,1.93-4.35,5-8.06,7.6-12.07-1.77-16.16-8.43-28.6-23.49-36.13-7.73-4.64-17.25-3.89-26.72-1.93a34.51,34.51,0,0,0-9,15.93,9.66,9.66,0,0,1,.76,2C697.83,112.61,691.83,124.61,700.83,131.61Z" style="fill: rgb(255, 138, 101);"/><path class="cls-4" d="M700.83,131.61c-9-7-3-19-6-29a9.66,9.66,0,0,0-.76-2,26.14,26.14,0,0,0-.52,3.36c-.76,9-4.34,17.81-1.44,26.34,1.21,3.55,3.08,7,6.13,9.2a49.88,49.88,0,0,0,4.68,2.65c2,1.15,3.81,2.61,5.85,3.69,6.39,3.36,14.07,2.59,21.24,1.72,4-.49,8.41-1.13,11.26-4a17.85,17.85,0,0,0,3.44-6.22C729.85,144.45,713.91,145.38,700.83,131.61Z" style="fill: rgb(255, 112, 67);"/><path class="cls-2" d="M729.83,86.61c15.06,7.53,21.72,20,23.49,36.13.29-.45.59-.91.87-1.38,2.73-4.54,4.64-10.09,3-15.12-2.16-6.53-9.3-9.8-13.9-14.92-2.68-3-4.55-6.7-7.56-9.34-4.19-3.67-10.15-4.83-15.67-4.14s-11.15,2.33-15.61,5.66a15.08,15.08,0,0,0-1.32,1.18C712.58,82.72,722.1,82,729.83,86.61Z" style="fill: rgb(255, 171, 145);"/><path class="cls-4" d="M582.77,104.86c-3.74-11.22-1.32-25.24-3.22-38.29a15.14,15.14,0,0,0-1.87,3.09,33.28,33.28,0,0,0-2.11,8.27l-3.18,19.48a26.36,26.36,0,0,0-.52,6.44c.43,5.32,4.16,10,8.82,12.61s10.15,3.37,15.49,3.31a21,21,0,0,0,8.32-1.46,22.08,22.08,0,0,0,6.11-4.46c1.88-1.8,3.67-3.7,5.37-5.67C602,115.62,588.28,120.16,582.77,104.86Z" style="fill: rgb(255, 112, 67);"/><path class="cls-3" d="M616,108.18c1.51-1.76,2.95-3.57,4.3-5.46,3.06-4.25,5.77-8.9,9.88-12.14.76-.6,1.57-1.16,2.39-1.71.88-5.05,1.81-10,2.22-15,0-7-9-10-16-12-6.51-1.62-13.69-1.93-19.9-4.68a30.24,30.24,0,0,0-5.66,2.22c.62-.06-.87.42-1.84.66a17,17,0,0,0-11.82,6.51c1.9,13.05-.52,27.07,3.22,38.29C588.28,120.16,602,115.62,616,108.18Z" style="fill: rgb(255, 138, 101);"/><path class="cls-2" d="M634.77,73.86c-.41,5-1.34,10-2.22,15A19,19,0,0,0,638,84.16c1.94-2.86,2.12-6.54,2-10-.09-2.77-.38-5.69-2-7.92s-4.39-3.41-7-4.45l-12.22-4.95A24.82,24.82,0,0,0,614,55.28a20,20,0,0,0-5.57,0,52.46,52.46,0,0,0-9.53,1.93c6.21,2.75,13.39,3.06,19.9,4.68C625.77,63.86,634.77,66.86,634.77,73.86Z" style="fill: rgb(255, 171, 145);"/><path class="cls-3" d="M397,44c2,2,3,7,5,9,12,15,28,24,40,39,10,15,21,31,37,36,6.66,2,13.32,3.76,20,5.47q3.18-.28,6.32-.62c10.55-1.12,21.24-2.45,31.08-6.44a51,51,0,0,0,12.18-7c1.83-19,7.92-36.85,10.45-55.44,2-14,5-35-9-42C533.75,14.23,517,9,501.86.87L384.7.07C382.59,14.76,389,30.17,397,44Z" style="fill: rgb(255, 138, 101);"/><path class="cls-4" d="M479,128c-16-5-27-21-37-36-12-15-28-24-40-39-2-2-3-7-5-9C389,30.17,382.59,14.76,384.7.07L374.65,0c-7,14.2-14.22,30.48-8.65,45.32,4.18,11.12,14.54,18.47,23.85,25.85a244.47,244.47,0,0,1,28,26c10.34,11.22,20,23.74,33.66,30.6,14.43,7.26,31.2,7.16,47.44,5.7C492.32,131.76,485.66,130,479,128Z" style="fill: rgb(255, 112, 67);"/><path class="cls-2" d="M559,64c-2.53,18.59-8.62,36.47-10.45,55.44a36.38,36.38,0,0,0,11-13.71c4.16-9.44,3.45-20.23,5.33-30.37,1.53-8.28,4.79-16.11,7.73-24,3.1-8.33,5.72-18.18.91-25.65-2.8-4.34-7.56-6.92-11.75-9.92A56.26,56.26,0,0,1,547.68,1.19L501.86.87C517,9,533.75,14.23,550,22,564,29,561,50,559,64Z" style="fill: rgb(255, 171, 145);"/><path class="cls-2" d="M718.76,44l2-.18A6.93,6.93,0,0,0,718.76,44Z" style="fill: rgb(255, 171, 145);"/><path class="cls-4" d="M714.53,61.05c-4.61-1.85-.73-8.79-.88-13.78a9.8,9.8,0,0,0-.68.88A18.59,18.59,0,0,0,710.32,57a11.27,11.27,0,0,0,.64,5.71,4.76,4.76,0,0,0,4.56,3,7.22,7.22,0,0,0,2.56-1l7.49-4.12,1-.57C722.46,60.36,718,62.2,714.53,61.05Z" style="fill: rgb(255, 112, 67);"/><path class="cls-3" d="M730.6,56.6c-1.65-6.13-7.45-10.53-13.42-12.06a10.07,10.07,0,0,0-3.53,2.73c.15,5-3.73,11.93.88,13.78,3.46,1.15,7.93-.69,12.05-1.11A11.9,11.9,0,0,0,730.6,56.6Z" style="fill: rgb(255, 138, 101);"/><path class="cls-2" d="M730.6,56.6c.08-.12.17-.24.24-.36a7.57,7.57,0,0,0,.42-6.44,10.86,10.86,0,0,0-4.19-5.07c-2.59-1.75-6.25-2.52-8.78-.67l.47,0a6.93,6.93,0,0,1,2-.18l-2,.18a8.12,8.12,0,0,0-1.58.52C723.15,46.07,729,50.47,730.6,56.6Z" style="fill: rgb(255, 171, 145);"/><path class="cls-4" d="M764.42,43.66c-4.61-1.84-.72-8.79-.87-13.78a9.53,9.53,0,0,0-.68.89,18.48,18.48,0,0,0-2.65,8.82,11.27,11.27,0,0,0,.63,5.71,4.75,4.75,0,0,0,4.57,3,7.08,7.08,0,0,0,2.55-1l7.5-4.13c.33-.18.67-.37,1-.57C772.36,43,767.89,44.82,764.42,43.66Z" style="fill: rgb(255, 112, 67);"/><path class="cls-3" d="M780.5,39.21c-1.65-6.12-7.45-10.52-13.42-12.06a10.19,10.19,0,0,0-3.53,2.73c.15,5-3.74,11.94.87,13.78,3.47,1.16,7.94-.69,12.05-1.11A11.84,11.84,0,0,0,780.5,39.21Z" style="fill: rgb(255, 138, 101);"/><path class="cls-2" d="M780.5,39.21c.08-.12.17-.23.24-.36a7.56,7.56,0,0,0,.42-6.44A10.89,10.89,0,0,0,777,27.35c-2.59-1.76-6.25-2.53-8.78-.68l.47,0a7.31,7.31,0,0,1,2-.18l-2,.18a8.12,8.12,0,0,0-1.58.52C773.05,28.69,778.85,33.09,780.5,39.21Z" style="fill: rgb(255, 171, 145);"/><path class="cls-4" d="M883.68,153.46c6,9,19,14,28,9a36.63,36.63,0,0,0,18.5-23.11,53.74,53.74,0,0,0-12.5-12.89c-15.42-12.17-34.12-20.4-47.57-34.28a53.07,53.07,0,0,0-9.91,5.67,81.1,81.1,0,0,0-10.78,10.27l-6.85,7.39C859.06,124.23,871.74,138.11,883.68,153.46Z" style="fill: rgb(255, 112, 67);"/><path class="cls-3" d="M930.18,139.35a36.63,36.63,0,0,1-18.5,23.11c-9,5-22,0-28-9-11.94-15.35-24.62-29.23-41.11-37.95q-3.15,3.38-6.28,6.76a44.53,44.53,0,0,0-6.14,5.2c.19.35.36.71.54,1.07l.18.37a42.52,42.52,0,0,1,1.81,4.55c10,24,20,52,43,65,8,4,20,1,31,4,4.47,1.49,9,3,13.43,4.52,2.16-2.82,3.86-6,5.78-9,4-6.31,9.21-11.78,13.92-17.61C940.73,165.56,938.31,151.25,930.18,139.35Z" style="fill: rgb(255, 138, 101);"/><path class="cls-4" d="M906.68,202.46c-11-3-23,0-31-4-23-13-33-41-43-65a42.52,42.52,0,0,0-1.81-4.55l-.18-.37c-.18-.36-.35-.72-.54-1.07-2.78,2.91-4.79,6.26-5,10.23-.13,3.14,1,6.17,2,9.14,4.39,12.62,7.91,25.67,8.59,39,.23,4.64.13,9.34,1.1,13.89s3.22,9.06,7.12,11.6c5,3.23,11.41,2.67,17.24,1.63s12-2.42,17.54-.48c3.07,1.07,5.77,3.1,8.92,3.94,2.9.78,6,.51,8.95.22,7.06-.66,14.6-1.51,20.06-6a22,22,0,0,0,3.4-3.63C915.63,205.48,911.15,204,906.68,202.46Z" style="fill: rgb(255, 112, 67);"/><path class="cls-3" d="M930.8,115.8c-4.21-2.18-8.7-4-12.88-6.18A78.16,78.16,0,0,1,899.05,96c-3.94-3.86-8.09-8.45-13.6-8.67a18.86,18.86,0,0,0-7.17,1.55c-2.76,1-5.5,2.07-8.17,3.28,13.45,13.88,32.15,22.11,47.57,34.28a53.74,53.74,0,0,1,12.5,12.89A50,50,0,0,0,930.8,115.8Z" style="fill: rgb(255, 138, 101);"/><path class="cls-2" d="M949.76,141.82c-1.32-5.63-2.84-11.37-6.25-16-3.24-4.44-7.79-7.43-12.71-10a50,50,0,0,1-.62,23.55c8.13,11.9,10.55,26.21,9.63,41,.63-.79,1.25-1.58,1.87-2.38,5.15-6.75,9.53-14.57,9.85-23.05A49.14,49.14,0,0,0,949.76,141.82Z" style="fill: rgb(255, 171, 145);"/><path class="cls-2" d="M1003.68,71.46c2.42,8.73,2.74,18.4,4.35,27.41a68,68,0,0,0,7-10.42,22.45,22.45,0,0,0,2.9-8.1c.43-4-.91-7.88-2.44-11.56a213.84,213.84,0,0,0-11.38-22.32c-1.36-2.44-2.78-4.94-5-6.67-3.76-3-9-3.1-13.75-3.1l-24.17,0c-2.15-.27-2.58,1.68-3.56,3.52C976.21,47.61,997.88,50.2,1003.68,71.46Z" style="fill: rgb(255, 171, 145);"/><path class="cls-4" d="M948.68,107.46c-11-5-10-21-7-32a85.24,85.24,0,0,0,2.57-24,18,18,0,0,0-5.33,4.6,22,22,0,0,0-2.81,6.32A56,56,0,0,0,933.35,75a65.58,65.58,0,0,0,.84,13.41q1.09,8.37,2.2,16.74c.29,2.21.61,4.51,1.88,6.35,2.22,3.24,6.57,4.06,10.48,4.42a126.41,126.41,0,0,0,14.82.52c3.58-.09,7.22-.32,10.66.62a34.26,34.26,0,0,0,4.51,1.24c3,.38,5.92-.89,8.57-2.31a66.59,66.59,0,0,0,8.13-5.13C979.31,112.79,963.33,114.11,948.68,107.46Z" style="fill: rgb(255, 112, 67);"/><path class="cls-3" d="M941.68,75.46c-3,11-4,27,7,32,14.65,6.65,30.63,5.33,46.76,3.41a68.16,68.16,0,0,0,12.59-12c-1.61-9-1.93-18.68-4.35-27.41-5.8-21.26-27.47-23.85-46.06-31.21a7.42,7.42,0,0,1-1,1.46c-1.89,2-2,2.23-4,4.17-2.4,2.32-5.51,3.83-8.36,5.59A85.24,85.24,0,0,1,941.68,75.46Z" style="fill: rgb(255, 138, 101);"/><path class="cls-2" d="M1091.68,53.46c5.28,10.55,4,23.17,6.12,34.42a65.68,65.68,0,0,1,3.36-7.34c2.64-4.92,5.95-9.65,7-15.13A19.44,19.44,0,0,0,1103.34,49c-3.67-4-8.82-6.2-13.83-8.23a67.55,67.55,0,0,0-11.83-3.93,72,72,0,0,0-13.69-1l-17.39-.16c-4.52,0-9.1-.07-13.5,1a27,27,0,0,0-8.41,3.69c17.58,10.89,40.51,3.56,60,9.13C1086.68,49.46,1089.68,51.46,1091.68,53.46Z" style="fill: rgb(255, 171, 145);"/><path class="cls-4" d="M1036.68,98.46c-11.35-9.46-17.33-29.63-21.33-47.86l0,.06a27.68,27.68,0,0,0-1.08,22.62c2,8.66-3.65,15-1.7,23.65.83,3.69,1.7,7.49,3.89,10.58,3.09,4.38,8.3,6.66,13.29,8.63,6,2.36,12.21,4.62,18.64,4.4,5.6-.19,11-2.25,16.54-2.85,5.06-.55,10.29.1,15.19-1.28a19.12,19.12,0,0,0,11.23-8.74c.14-.25.26-.5.38-.74C1071.41,108.77,1051.54,110.09,1036.68,98.46Z" style="fill: rgb(255, 112, 67);"/><path class="cls-3" d="M1097.8,87.88c-2.09-11.25-.84-23.87-6.12-34.42-2-2-5-4-7-4-19.48-5.57-42.41,1.76-60-9.13a27.61,27.61,0,0,0-9.34,10.27c4,18.23,10,38.4,21.33,47.86,14.86,11.63,34.73,10.31,55,8.47,2-3.79,2.74-8.1,3.85-12.24A65.37,65.37,0,0,1,1097.8,87.88Z" style="fill: rgb(255, 138, 101);"/><path class="cls-2" d="M997.14,219.65c2,14.35-3,29.71-4.36,44.17a98.14,98.14,0,0,1,5.52-8.31c4.08-5.46,8.76-10.54,11.4-17.11,2.81-7,2.91-15.19.27-21.54-2.42-5.81-6.81-9.8-11.12-13.52a59,59,0,0,0-10.45-7.69c-4.14-2.21-8.66-3.37-13.15-4.52l-17-4.34c-4.44-1.13-8.93-2.27-13.58-2a24.85,24.85,0,0,0-9.37,2.57c14,17.71,38.74,14.09,56.21,25.65C993.44,213.49,995.78,216.69,997.14,219.65Z" style="fill: rgb(255, 171, 145);"/><path class="cls-4" d="M929.52,262.34c-8.3-14.44-8.1-40.9-6.54-64.47a.18.18,0,0,1-.05.07,43.75,43.75,0,0,0-7.87,27.8c-.71,11.22-8.11,17.72-8.81,28.94-.3,4.78-.59,9.7.63,14.06,1.72,6.17,6.16,10.24,10.47,13.87,5.16,4.37,10.61,8.65,17,9.91,5.56,1.11,11.46-.16,17.12.42,5.14.52,10.08,2.58,15.32,2,5-.52,10-3.51,13.67-8.16.21-.27.4-.55.6-.83C960.55,283.44,940.62,280.32,929.52,262.34Z" style="fill: rgb(255, 112, 67);"/><path class="cls-3" d="M992.78,263.82c1.34-14.46,6.37-29.82,4.36-44.17-1.36-3-3.7-6.16-5.67-6.63-17.47-11.56-42.21-7.94-56.21-25.65A33.57,33.57,0,0,0,923,197.87c-1.56,23.57-1.76,50,6.54,64.47,11.1,18,31,21.1,51.53,23.65,3.08-4.22,5.13-9.39,7.47-14.26C989.83,269,991.26,266.37,992.78,263.82Z" style="fill: rgb(255, 138, 101);"/><path class="cls-2" d="M1325.44,126.28c1,7.24-1.53,15-2.2,22.28a48.28,48.28,0,0,1,2.78-4.19c2.06-2.76,4.42-5.32,5.75-8.63a14.85,14.85,0,0,0,.14-10.87c-1.22-2.93-3.44-4.94-5.61-6.82a29.9,29.9,0,0,0-5.27-3.88,29,29,0,0,0-6.64-2.28l-8.6-2.19a22,22,0,0,0-6.84-1,12.63,12.63,0,0,0-4.74,1.29c7.07,8.93,19.55,7.11,28.36,12.94C1323.57,123.17,1324.75,124.78,1325.44,126.28Z" style="fill: rgb(255, 171, 145);"/><path class="cls-4" d="M1291.32,147.81c-4.19-7.28-4.09-20.63-3.3-32.52,0,0,0,0,0,0a22.1,22.1,0,0,0-4,14c-.35,5.66-4.09,8.94-4.44,14.6a22,22,0,0,0,.32,7.09c.87,3.12,3.11,5.17,5.28,7,2.61,2.2,5.35,4.36,8.57,5,2.81.56,5.79-.08,8.64.21,2.59.27,5.09,1.3,7.73,1a10.45,10.45,0,0,0,6.9-4.12l.3-.41C1307,158.46,1296.92,156.88,1291.32,147.81Z" style="fill: rgb(255, 112, 67);"/><path class="cls-3" d="M1323.24,148.56c.67-7.3,3.21-15,2.2-22.28-.69-1.5-1.87-3.11-2.87-3.35-8.81-5.83-21.29-4-28.36-12.94a17.07,17.07,0,0,0-6.19,5.3c-.79,11.89-.89,25.24,3.3,32.52,5.6,9.07,15.65,10.65,26,11.94a46.73,46.73,0,0,0,3.77-7.2Q1322.08,150.5,1323.24,148.56Z" style="fill: rgb(255, 138, 101);"/><path class="cls-3" d="M854.68,120.46c10,4,19-6,28-3,5.09,1.78,10,3.82,14.8,6,3.33.31,6.67.75,10,.87,2.91.1,5.95-.07,8.52-1.44a17.78,17.78,0,0,0,5.06-4.54c-3.13-13.51,1.62-28.69-9.38-38.84-6.36-5.73-15.14-8.62-23.52-12.28a33.4,33.4,0,0,0-10.33,2.2c-7.28,3-13.3,9.42-21.14,10.05-6.16,3.49-10.88,5.45-16.2,9.56C840.32,102.22,841.38,116.54,854.68,120.46Z" style="fill: rgb(255, 138, 101);"/><path class="cls-4" d="M882.68,117.46c-9-3-18,7-28,3-13.3-3.92-14.36-18.24-14.19-31.47l-1.44,1.15a14.87,14.87,0,0,0-4.49,5.22,15.83,15.83,0,0,0-.87,6.25l0,10.32c0,3.73,0,7.69,2,10.84,1.88,3,5.19,4.69,8.5,5.85a41.32,41.32,0,0,0,26.48.29c5-1.65,9.72-4.27,14.9-5.29a41.59,41.59,0,0,1,11.9-.21C892.66,121.28,887.77,119.24,882.68,117.46Z" style="fill: rgb(255, 112, 67);"/><path class="cls-2" d="M921.06,118.3c.19-.22.38-.45.56-.68,2.4-2.88,4.89-6,5.24-9.73a19,19,0,0,0-1-6.66l-2.6-9.34c-1.84-6.62-3.89-13.59-8.91-18.28-5.64-5.26-13.89-6.56-21.6-6.58-1.52,0-3,0-4.58.15,8.38,3.66,17.16,6.55,23.52,12.28C922.68,89.61,917.93,104.79,921.06,118.3Z" style="fill: rgb(255, 171, 145);"/><path class="cls-4" d="M973.68,133.46c-2.57-4.29,1.47-10.05-.48-15.39-.22,1-.41,1.93-.68,2.84-1.11,3.76-4,7-4.22,10.92s2.13,7.37,5.22,9.58,6.83,3.28,10.51,4.23a30.68,30.68,0,0,0,3.9.81,25.09,25.09,0,0,0,5.27,0,33.55,33.55,0,0,0,11.53-3C992.69,143.77,980.4,143.91,973.68,133.46Z" style="fill: rgb(255, 112, 67);"/><path class="cls-3" d="M1010.89,138.8c-3.1-14.4-15-22.61-28.83-28.55L976,113c-1.74,1-2.33,3-2.8,5.09,1.95,5.34-2.09,11.1.48,15.39,6.72,10.45,19,10.31,31.05,10a20.82,20.82,0,0,0,3.24-1.93A17.82,17.82,0,0,0,1010.89,138.8Z" style="fill: rgb(255, 138, 101);"/><path class="cls-2" d="M1010.89,138.8a14.07,14.07,0,0,0,3.6-10.8,16.48,16.48,0,0,0-2.22-6.07,28,28,0,0,0-25.93-13.62l-4.28,1.94C995.9,116.19,1007.79,124.4,1010.89,138.8Z" style="fill: rgb(255, 171, 145);"/><path class="cls-4" d="M974.08,160.34c-2.57-4.29,1.47-10.05-.48-15.38-.22.95-.41,1.93-.68,2.83-1.11,3.77-4,7-4.22,10.92s2.13,7.38,5.22,9.59,6.83,3.27,10.51,4.22a28.86,28.86,0,0,0,3.91.81,24.35,24.35,0,0,0,5.26-.05,33.82,33.82,0,0,0,11.54-2.95C993.09,170.65,980.8,170.79,974.08,160.34Z" style="fill: rgb(255, 112, 67);"/><path class="cls-3" d="M1011.29,165.68c-3.09-14.39-15-22.61-28.83-28.55l-6.05,2.74c-1.74,1-2.34,3-2.81,5.09,1.95,5.33-2.09,11.09.48,15.38,6.72,10.45,19,10.31,31.06,10a22.05,22.05,0,0,0,3.23-1.93A17.48,17.48,0,0,0,1011.29,165.68Z" style="fill: rgb(255, 138, 101);"/><path class="cls-2" d="M1011.29,165.68a14.11,14.11,0,0,0,3.61-10.8,16.63,16.63,0,0,0-2.23-6.06,28,28,0,0,0-25.93-13.63l-4.28,1.94C996.31,143.07,1008.2,151.29,1011.29,165.68Z" style="fill: rgb(255, 171, 145);"/><path class="cls-4" d="M1076.22,196.6c-2.57-4.29,1.47-10-.48-15.39-.22,1-.41,1.94-.68,2.84-1.11,3.77-4,7-4.22,10.92s2.13,7.38,5.22,9.58,6.83,3.28,10.51,4.23a30.68,30.68,0,0,0,3.9.81,24.44,24.44,0,0,0,5.27-.05,33.82,33.82,0,0,0,11.54-2.95C1095.23,206.91,1082.94,207.05,1076.22,196.6Z" style="fill: rgb(255, 112, 67);"/><path class="cls-3" d="M1113.43,201.94c-3.1-14.39-15-22.61-28.83-28.55l-6.06,2.74c-1.73,1-2.33,3-2.8,5.08,2,5.34-2.09,11.1.48,15.39,6.72,10.45,19,10.31,31.06,10a21.27,21.27,0,0,0,3.23-1.94A17.42,17.42,0,0,0,1113.43,201.94Z" style="fill: rgb(255, 138, 101);"/><path class="cls-2" d="M1113.43,201.94a14.11,14.11,0,0,0,3.61-10.8,16.56,16.56,0,0,0-2.23-6.06,28,28,0,0,0-25.93-13.63l-4.28,1.94C1098.45,179.33,1110.33,187.55,1113.43,201.94Z" style="fill: rgb(255, 171, 145);"/><path class="cls-4" d="M756.62,73.24c-2.57-4.29,1.47-10-.48-15.39-.22,1-.41,1.93-.68,2.84-1.11,3.76-4,7-4.21,10.92s2.12,7.37,5.21,9.58,6.83,3.28,10.51,4.23a30.48,30.48,0,0,0,3.91.81,24.35,24.35,0,0,0,5.26,0,33.6,33.6,0,0,0,11.54-3C775.64,83.55,763.34,83.69,756.62,73.24Z" style="fill: rgb(255, 112, 67);"/><path class="cls-3" d="M793.83,78.58C790.74,64.19,778.85,56,765,50l-6,2.74c-1.74,1-2.34,3-2.81,5.08,2,5.34-2.09,11.1.48,15.39,6.72,10.45,19,10.31,31.06,10a20.73,20.73,0,0,0,3.23-1.93A17.42,17.42,0,0,0,793.83,78.58Z" style="fill: rgb(255, 138, 101);"/><path class="cls-2" d="M793.83,78.58a14.12,14.12,0,0,0,3.61-10.8,16.67,16.67,0,0,0-2.23-6.07,28,28,0,0,0-25.93-13.62L765,50C778.85,56,790.74,64.19,793.83,78.58Z" style="fill: rgb(255, 171, 145);"/><path class="cls-4" d="M883.25,46.61c-2.58-4.28,1.46-10-.49-15.38-.21,1-.41,1.93-.67,2.84-1.11,3.76-4,7-4.22,10.92s2.12,7.37,5.21,9.58,6.84,3.28,10.52,4.23a30.33,30.33,0,0,0,3.9.81,25,25,0,0,0,5.26,0,33.6,33.6,0,0,0,11.54-3C902.26,56.93,890,57.07,883.25,46.61Z" style="fill: rgb(255, 112, 67);"/><path class="cls-3" d="M920.46,52c-3.1-14.39-15-22.6-28.83-28.54l-6.06,2.73c-1.74,1.05-2.33,3-2.81,5.09,2,5.34-2.09,11.1.49,15.38,6.72,10.46,19,10.32,31,10a20.73,20.73,0,0,0,3.23-1.93A17.14,17.14,0,0,0,920.46,52Z" style="fill: rgb(255, 138, 101);"/><path class="cls-2" d="M920.46,52a14.08,14.08,0,0,0,3.6-10.79,16.65,16.65,0,0,0-2.22-6.07,28,28,0,0,0-25.93-13.62l-4.28,1.94C905.47,29.35,917.36,37.56,920.46,52Z" style="fill: rgb(255, 171, 145);"/><path class="cls-4" d="M1021.85,113.26a3.75,3.75,0,0,0-.61.71c-1.31,2-.53,4.61.3,6.83l2.19,5.89a8.66,8.66,0,0,0,1.59,3c1.54,1.64,4,1.83,6.3,1.9,1.58,0,3.29.06,4.57-.87a5.05,5.05,0,0,0,1.13-1.22C1028.45,131.73,1023.89,122,1021.85,113.26Z" style="fill: rgb(255, 112, 67);"/><path class="cls-3" d="M1037.32,129.5a12.74,12.74,0,0,0,.67-1.12,19,19,0,0,0,1.79-4.34c-2.35-5.62-8.25-9.42-14.06-12.7-.39.11-.77.24-1.15.38a7.87,7.87,0,0,0-2.72,1.54C1023.89,122,1028.45,131.73,1037.32,129.5Z" style="fill: rgb(255, 138, 101);"/><path class="cls-2" d="M1039.26,118.37a11.3,11.3,0,0,0-3.12-3.08l-4.72-3.57a6.31,6.31,0,0,0-4-.71h0a10.72,10.72,0,0,0-1.67.33c5.81,3.28,11.71,7.08,14.06,12.7A7.37,7.37,0,0,0,1039.26,118.37Z" style="fill: rgb(255, 171, 145);"/><path class="cls-2" d="M1070.76,141.45c0-.39,0-.78,0-1.16-.12-4-1.93-8.31-5.54-10.11-1.86-.92-3.39-2.21-5.45-2.37a3.21,3.21,0,0,1,1.2.55l-1.2-.55a10.28,10.28,0,0,0-5-.09C1061.87,131.06,1067,135.31,1070.76,141.45Z" style="fill: rgb(255, 171, 145);"/><path class="cls-3" d="M1068.37,147.34a8.79,8.79,0,0,0,2.39-5.89c-3.74-6.14-8.89-10.39-15.94-13.73a10.79,10.79,0,0,0-7.07,5C1051.82,141.1,1060,144.79,1068.37,147.34Z" style="fill: rgb(255, 138, 101);"/><path class="cls-4" d="M1047.75,132.74c-.12.21-.25.41-.35.62a10.33,10.33,0,0,0,3.81,12.88,16.13,16.13,0,0,0,4.58,1.67,44.14,44.14,0,0,0,6,1,9.57,9.57,0,0,0,5.36-.65,5.42,5.42,0,0,0,1.18-.88C1060,144.79,1051.82,141.1,1047.75,132.74Z" style="fill: rgb(255, 112, 67);"/><path class="cls-4" d="M1088.73,117.78l-.32.07a4.89,4.89,0,0,0-1.87.72,4,4,0,0,0-1.27,2.05,18.19,18.19,0,0,0-.6,5.16q-.09,6.42.11,12.83a6.24,6.24,0,0,0,1,3.88,5.34,5.34,0,0,0,2.54,1.5,18.39,18.39,0,0,0,13.19-.78,20.07,20.07,0,0,1-8.83-2.75C1084.51,135.92,1091.16,125.62,1088.73,117.78Z" style="fill: rgb(255, 112, 67);"/><path class="cls-3" d="M1106.79,139.24a8,8,0,0,0,.92-1.82c-3.69-8.77-5.11-16.79-13.73-20.75-1.71.3-3.39.69-5.25,1.11,2.43,7.84-4.22,18.14,4,22.68a20.07,20.07,0,0,0,8.83,2.75,17.53,17.53,0,0,0,1.83-.94A10.59,10.59,0,0,0,1106.79,139.24Z" style="fill: rgb(255, 138, 101);"/><path class="cls-2" d="M1107.71,137.42a19.32,19.32,0,0,0,.81-6.13c.08-3.53.1-7.21-1.42-10.4s-5.1-5.68-8.52-4.79a41.58,41.58,0,0,0-4.6.57C1102.6,120.63,1104,128.65,1107.71,137.42Z" style="fill: rgb(255, 171, 145);"/><path class="cls-4" d="M707.78,17.27l-.32.07a4.89,4.89,0,0,0-1.87.72,4,4,0,0,0-1.27,2.05,17.88,17.88,0,0,0-.6,5.16q-.09,6.42.11,12.83a6.24,6.24,0,0,0,1,3.88,5.36,5.36,0,0,0,2.53,1.5,18.41,18.41,0,0,0,13.2-.78A20.07,20.07,0,0,1,711.73,40C703.56,35.41,710.21,25.11,707.78,17.27Z" style="fill: rgb(255, 112, 67);"/><path class="cls-3" d="M725.84,38.73a8,8,0,0,0,.92-1.82c-3.69-8.77-5.11-16.79-13.73-20.75-1.71.3-3.39.69-5.25,1.11,2.43,7.84-4.22,18.14,4,22.68a20.07,20.07,0,0,0,8.83,2.75,18.58,18.58,0,0,0,1.83-.94A10.59,10.59,0,0,0,725.84,38.73Z" style="fill: rgb(255, 138, 101);"/><path class="cls-2" d="M726.76,36.91a19.32,19.32,0,0,0,.81-6.13c.08-3.53.1-7.21-1.43-10.39s-5.09-5.69-8.51-4.8a41.58,41.58,0,0,0-4.6.57C721.65,20.12,723.07,28.14,726.76,36.91Z" style="fill: rgb(255, 171, 145);"/><path class="cls-4" d="M1081.61,496.68c-6-8.32-4.66-18.36-1.46-28.39a47.85,47.85,0,0,0-2.49,4.3,30.39,30.39,0,0,0-2.88,20.06,17.53,17.53,0,0,0,3.69,8.16c4.64,5.28,12.7,5.64,18.72,9.26,2.49,1.5,4.61,3.55,7.09,5.05,5.32,3.2,12,3.62,18,2.13,1-.24,2-.55,2.9-.88a42.94,42.94,0,0,1-11.6-3.69C1102.61,507.68,1089.61,507.68,1081.61,496.68Z" style="fill: rgb(255, 112, 67);"/><path class="cls-3" d="M1140.15,507.74c.1-23.19-8-47.91-27.92-58.28-1.22.8-2.41,1.68-3.6,2.46a59.84,59.84,0,0,1-7.74,4l-11.76,5.42c-4.59,1.94-6.86,3.76-9,6.91-3.2,10-4.59,20.07,1.46,28.39,8,11,21,11,32,16a42.94,42.94,0,0,0,11.6,3.69,51.25,51.25,0,0,0,13.58-7.54C1139.26,508.48,1139.71,508.12,1140.15,507.74Z" style="fill: rgb(255, 138, 101);"/><path class="cls-2" d="M1140.15,507.74a8.1,8.1,0,0,0,2.09-2.47c1.24-2.45.6-5.38.09-8.08a68.12,68.12,0,0,1-1.19-12.5,42.71,42.71,0,0,0-.35-8.08c-.78-4.1-3.09-7.73-5.36-11.24l-6.76-10.5c-2.29-3.55-5.17-7.47-9.38-7.82-2.56-.21-4.86,1-7.06,2.41C1132.14,459.83,1140.25,484.55,1140.15,507.74Z" style="fill: rgb(255, 171, 145);"/><path class="cls-4" d="M1172.61,609.68a24.37,24.37,0,0,0,9.12-4.85c-7.43-17.3-20.4-30.81-40.47-35.94.12.26.25.53.35.79C1147.61,586.68,1152.61,615.68,1172.61,609.68Z" style="fill: rgb(255, 112, 67);"/><path class="cls-3" d="M1181.73,604.83a24.37,24.37,0,0,1-9.12,4.85c-20,6-25-23-31-40-.1-.26-.23-.53-.35-.79-1.83-.47-3.7-.89-5.65-1.21-15.64-2.24-30.74,2.74-45.69,7.08-2.91,5-4.85,10.55-7.78,15.53-3.12,5.3-7.39,9.93-9.77,15.6-.2.49-.37,1-.54,1.48,5.89,13.94,14,27,21.78,39.31,14.41,25,36.88,28.19,60,28.7,12.4-5.67,24.65-11.79,36-19.22v-.48C1190.5,637.9,1188.22,619.93,1181.73,604.83Z" style="fill: rgb(255, 138, 101);"/><path class="cls-4" d="M1093.61,646.68c-7.74-12.27-15.89-25.37-21.78-39.31-3.85,11,.12,24,8.1,32.65,3.58,3.89,7.87,7.08,11.59,10.83,5.82,5.86,10.17,13,15.6,19.24s12.43,11.75,20.65,12.62c7.32.78,14.47-2.22,21.19-5.23,1.54-.69,3.09-1.39,4.63-2.1C1130.49,674.87,1108,671.71,1093.61,646.68Z" style="fill: rgb(255, 112, 67);"/><path class="cls-2" d="M1133.37,558.64a97.44,97.44,0,0,0-16.74.32c-8.84,1.1-17.76,4.49-23.53,11.27a32.35,32.35,0,0,0-3.18,4.53c14.95-4.34,30-9.32,45.69-7.08,2,.32,3.82.74,5.65,1.21A28,28,0,0,0,1133.37,558.64Z" style="fill: rgb(255, 171, 145);"/><path class="cls-2" d="M1199.87,606.14a83.77,83.77,0,0,1-1.88-22.57c.22-6.32.69-13.27-3.17-18.28-3-4-7.9-5.56-13-6.2,8.51,15.36,11.63,35.58-.08,45.74,6.49,15.1,8.77,33.07,7.88,50.85v.48c4.18-2.74,8.25-5.65,12.16-8.79a16.2,16.2,0,0,0,4.41-4.71,13.45,13.45,0,0,0,1.27-6.43C1207.41,625.84,1202.31,616.23,1199.87,606.14Z" style="fill: rgb(255, 171, 145);"/><path class="cls-3" d="M1181.81,559.09a68.75,68.75,0,0,0-7.68-.45c-11.6.4-19.24,1-30.84.52-3.3-.14-6.61-.36-9.92-.52a28,28,0,0,1,7.89,10.25c20.07,5.13,33,18.64,40.47,35.94C1193.44,594.67,1190.32,574.45,1181.81,559.09Z" style="fill: rgb(255, 138, 101);"/><path class="cls-2" d="M1178.61,520.68a124,124,0,0,1,17.79,24.05,18.3,18.3,0,0,0-1.81-13.91c-2.23-3.64-5.82-6.25-8.26-9.74-1.17-1.68-2.1-3.58-3.72-4.82a12.91,12.91,0,0,0-4.95-2q-5.28-1.29-10.59-2.45c-3.08-.67-6.27-1.32-9.37-.73a12.67,12.67,0,0,0-3.3,1.15C1163.27,511,1172.68,514.75,1178.61,520.68Z" style="fill: rgb(255, 171, 145);"/><path class="cls-4" d="M1161.61,563.68c-18.89-.79-18.57-20.16-18.56-37.15a34.28,34.28,0,0,0-4.31,13.08c-.49,6,1.44,12,3.36,17.77.88,2.66,1.84,5.45,3.92,7.36,3.39,3.11,8.57,2.89,13.14,2.37,6.72-.77,13.48-1.8,19.74-4.35.76-.31,1.52-.65,2.26-1C1174.65,562.41,1168.13,564.22,1161.61,563.68Z" style="fill: rgb(255, 112, 67);"/><path class="cls-3" d="M1194.27,550.14a20.89,20.89,0,0,0,2.13-5.41,124,124,0,0,0-17.79-24.05c-5.93-5.93-15.34-9.69-24.21-8.42a17.7,17.7,0,0,0-6.33,5.62,41,41,0,0,0-5,11L1145,523c-.66,1.15-1.32,2.32-1.94,3.5,0,17-.33,36.36,18.56,37.15,6.52.54,13-1.27,19.55-1.93A29.41,29.41,0,0,0,1194.27,550.14Z" style="fill: rgb(255, 138, 101);"/><path class="cls-3" d="M1233.61,539.68c9,7.39,21,8.37,32.89,5.29.53-.25,1.08-.49,1.61-.75,4.54-2.17,9.08-4.64,12.44-8.38a24.39,24.39,0,0,0,4.17-6.54c3.89-15.93,3.78-32.39-8.11-43.62-9.18-10-24.63-7.5-39.37-8.13a7.68,7.68,0,0,1-2.61,2.05,29.88,29.88,0,0,0-6.25,4.08,24.64,24.64,0,0,0-5.49,8.44C1225,510,1220.29,529.68,1233.61,539.68Z" style="fill: rgb(255, 138, 101);"/><path class="cls-4" d="M1233.61,539.68c-13.32-10-8.62-29.7-10.72-47.56-.09.21-.19.43-.28.65-7.77,18.12-8.94,40,1,57,1.41,2.43,3.14,4.84,5.67,6.06,4,1.92,8.69.41,12.84-1.11,8.23-3,16.47-6.07,24.42-9.76C1254.63,548.05,1242.59,547.07,1233.61,539.68Z" style="fill: rgb(255, 112, 67);"/><path class="cls-2" d="M1276.61,485.68c11.89,11.23,12,27.69,8.11,43.62,2.65-5.94,3.38-12.9,3.65-19.51s.24-13.15-1.88-19.3-6.67-11.79-12.9-13.66c-4.95-1.48-10.29-.47-15.41-1.14-3.12-.42-6.14-1.46-9.26-1.89s-6.54-.2-9.07,1.69a7.55,7.55,0,0,0-2.61,2.06C1252,478.18,1267.43,475.66,1276.61,485.68Z" style="fill: rgb(255, 171, 145);"/><path class="cls-3" d="M1099.87,414.84c6.93,5.71,16.23,6.46,25.4,4.09l1.25-.58c3.5-1.68,7-3.59,9.6-6.48a19,19,0,0,0,3.22-5c3-12.31,2.92-25-6.26-33.69-7.09-7.74-19-5.79-30.41-6.28a5.71,5.71,0,0,1-2,1.58,23.24,23.24,0,0,0-4.83,3.16,18.83,18.83,0,0,0-4.23,6.51C1093.22,391.9,1089.58,407.12,1099.87,414.84Z" style="fill: rgb(255, 138, 101);"/><path class="cls-4" d="M1099.87,414.84c-10.29-7.72-6.65-22.94-8.27-36.73l-.23.5c-6,14-6.9,30.86.75,44a11,11,0,0,0,4.38,4.68c3.07,1.49,6.71.32,9.92-.86,6.35-2.34,12.71-4.69,18.85-7.53C1116.1,421.3,1106.8,420.55,1099.87,414.84Z" style="fill: rgb(255, 112, 67);"/><path class="cls-2" d="M1133.08,373.14c9.18,8.67,9.26,21.38,6.26,33.69,2.05-4.59,2.61-10,2.82-15.07s.18-10.16-1.45-14.91-5.15-9.1-10-10.54c-3.82-1.15-8-.37-11.9-.89-2.42-.32-4.75-1.12-7.16-1.46s-5-.15-7,1.31a5.87,5.87,0,0,0-2,1.59C1114.06,367.35,1126,365.4,1133.08,373.14Z" style="fill: rgb(255, 171, 145);"/><path class="cls-3" d="M792.68,193.44c6.35,5.24,14.87,5.93,23.27,3.75l1.15-.53c3.21-1.54,6.42-3.29,8.8-5.94a17.2,17.2,0,0,0,3-4.62c2.76-11.28,2.68-22.93-5.74-30.88-6.49-7.09-17.43-5.31-27.87-5.76a5.16,5.16,0,0,1-1.84,1.45,21.15,21.15,0,0,0-4.43,2.9,17.31,17.31,0,0,0-3.88,6C786.57,172.42,783.24,186.37,792.68,193.44Z" style="fill: rgb(255, 138, 101);"/><path class="cls-4" d="M792.68,193.44c-9.44-7.07-6.11-21-7.59-33.66l-.21.46c-5.49,12.82-6.32,28.28.69,40.35a10.11,10.11,0,0,0,4,4.3c2.82,1.36,6.15.29,9.09-.79,5.83-2.15,11.66-4.3,17.28-6.91C807.55,199.37,799,198.68,792.68,193.44Z" style="fill: rgb(255, 112, 67);"/><path class="cls-2" d="M823.11,155.22c8.42,7.95,8.5,19.6,5.74,30.88,1.88-4.21,2.39-9.13,2.59-13.82s.17-9.3-1.33-13.66-4.73-8.34-9.14-9.66c-3.5-1.05-7.28-.34-10.9-.81-2.22-.3-4.35-1-6.56-1.34a8.69,8.69,0,0,0-6.42,1.2,5.35,5.35,0,0,0-1.85,1.45C805.68,149.91,816.62,148.13,823.11,155.22Z" style="fill: rgb(255, 171, 145);"/><path class="cls-3" d="M802.36,151.62c7-4.34,10.38-12.19,11-20.85,0-.42-.08-.84-.13-1.25-.43-3.54-1.06-7.14-2.8-10.25A17.36,17.36,0,0,0,807,115c-9.8-6.23-20.86-9.89-31.09-4.47-8.8,3.88-10.61,14.82-14.38,24.56a5.3,5.3,0,0,1,.78,2.21,21.3,21.3,0,0,0,1.32,5.12A17.41,17.41,0,0,0,768,148C780.49,150.66,792.64,158.29,802.36,151.62Z" style="fill: rgb(255, 138, 101);"/><path class="cls-4" d="M802.36,151.62c-9.72,6.67-21.87-1-34.32-3.61l.37.34c10.39,9.32,24.77,15.06,38.44,12.3a10.2,10.2,0,0,0,5.36-2.43c2.19-2.23,2.25-5.74,2.16-8.87-.16-6.2-.33-12.41-1-18.58C812.74,139.43,809.35,147.28,802.36,151.62Z" style="fill: rgb(255, 112, 67);"/><path class="cls-2" d="M775.91,110.53c10.23-5.42,21.29-1.76,31.09,4.47-3.38-3.13-7.88-5.2-12.25-6.88S786,105,781.38,105s-9.42,1.8-12.08,5.55c-2.12,3-2.65,6.79-4.27,10.07-1,2-2.37,3.79-3.37,5.79a8.7,8.7,0,0,0-.92,6.46,5.25,5.25,0,0,0,.79,2.22C765.3,125.35,767.11,114.41,775.91,110.53Z" style="fill: rgb(255, 171, 145);"/><path class="cls-3" d="M810.22,79c7-4.34,10.38-12.19,11-20.85,0-.42-.09-.84-.14-1.25-.42-3.54-1.05-7.14-2.79-10.25a17.83,17.83,0,0,0-3.44-4.28c-9.8-6.22-20.86-9.88-31.09-4.46-8.8,3.88-10.62,14.81-14.39,24.56a5.16,5.16,0,0,1,.78,2.21,21.91,21.91,0,0,0,1.32,5.12,17.44,17.44,0,0,0,4.42,5.59C788.35,78.07,800.49,85.69,810.22,79Z" style="fill: rgb(255, 138, 101);"/><path class="cls-4" d="M810.22,79c-9.73,6.66-21.87-1-34.32-3.61l.37.34c10.38,9.32,24.76,15.06,38.44,12.3a10.14,10.14,0,0,0,5.35-2.43c2.2-2.24,2.25-5.74,2.17-8.87-.16-6.2-.33-12.41-1-18.58C820.6,66.84,817.21,74.69,810.22,79Z" style="fill: rgb(255, 112, 67);"/><path class="cls-2" d="M783.77,37.94c10.23-5.42,21.29-1.76,31.09,4.46-3.38-3.12-7.88-5.19-12.26-6.87s-8.76-3.15-13.36-3.12-9.42,1.8-12.09,5.55c-2.11,3-2.65,6.79-4.26,10.07-1,2-2.37,3.79-3.37,5.79a8.65,8.65,0,0,0-.92,6.46,5.43,5.43,0,0,0,.78,2.22C773.15,52.75,775,41.82,783.77,37.94Z" style="fill: rgb(255, 171, 145);"/><path class="cls-2" d="M1114.52,248l-16.33,1.77h0Z" style="fill: rgb(255, 171, 145);"/><path class="cls-4" d="M1081,365c-2-2-2-10-5-11-32.63-10-26.76-46.68-31.59-75.37l-3.05,3c-3.36,3.31-6.81,6.76-8.58,11.14-2.08,5.15-1.56,10.93-1,16.46q2,20.32,4.06,40.63a15,15,0,0,0,1.5,6.11c1.87,3.23,5.74,4.56,9.09,6.2,9.38,4.56,16.26,12.91,24.49,19.32a23.19,23.19,0,0,0,8.4,4.59,25,25,0,0,0,9.33.08A144.81,144.81,0,0,0,1120.3,378,62,62,0,0,1,1081,365Z" style="fill: rgb(255, 112, 67);"/><path class="cls-3" d="M1154.34,361.66a38.34,38.34,0,0,0,8.28-8.3,36,36,0,0,0,3.8-6.55A40.33,40.33,0,0,0,1161,325c-7-11-21-15-27-26-6-12-5-29-16-34-14.5-7.63-31.92-8.28-49.13-9.49a45,45,0,0,0-7.26,6.2l-17.2,16.92c4.83,28.69-1,65.33,31.59,75.37,3,1,3,9,5,11a62,62,0,0,0,39.3,13,250.77,250.77,0,0,0,23.24-10.13A69.6,69.6,0,0,0,1154.34,361.66Z" style="fill: rgb(255, 138, 101);"/><path class="cls-2" d="M1162.58,306.73c-3-4.18-6.75-7.77-9.67-12-8-11.53-8.92-26.58-15.66-38.86a13.2,13.2,0,0,0-3.56-4.5,15.57,15.57,0,0,0-3.77-1.8c-7.31-2.7-24.59-2.89-31.73.23l-13.46,1.46c-5,.55-10.2,1.14-14.65,3.55-.41.22-.81.46-1.21.71,17.21,1.21,34.63,1.86,49.13,9.49,11,5,10,22,16,34,6,11,20,15,27,26a40.33,40.33,0,0,1,5.42,21.81A41.3,41.3,0,0,0,1162.58,306.73Z" style="fill: rgb(255, 171, 145);"/><path class="cls-4" d="M387.21,94.18c-1-1-1-5-2.51-5.53-16.42-5.05-13.47-23.48-15.9-37.91l-1.53,1.51a17.38,17.38,0,0,0-4.32,5.6c-1,2.59-.78,5.5-.5,8.28l2,20.44a7.47,7.47,0,0,0,.75,3.07c.94,1.63,2.89,2.3,4.57,3.12,4.72,2.3,8.19,6.49,12.33,9.72a11.79,11.79,0,0,0,4.22,2.31,12.74,12.74,0,0,0,4.69,0A73.17,73.17,0,0,0,407,100.72,31.21,31.21,0,0,1,387.21,94.18Z" style="fill: rgb(255, 112, 67);"/><path class="cls-3" d="M424.1,92.51a19.45,19.45,0,0,0,4.17-4.18,17.81,17.81,0,0,0,1.91-3.3,20.25,20.25,0,0,0-2.73-11c-3.52-5.53-10.56-7.54-13.58-13.08-3-6-2.51-14.59-8.05-17.1-7.29-3.84-16.05-4.16-24.71-4.77a22.49,22.49,0,0,0-3.65,3.11l-8.66,8.52c2.43,14.43-.52,32.86,15.9,37.91,1.5.5,1.5,4.53,2.51,5.53A31.21,31.21,0,0,0,407,100.72a127.53,127.53,0,0,0,11.69-5.1A35.5,35.5,0,0,0,424.1,92.51Z" style="fill: rgb(255, 138, 101);"/><path class="cls-2" d="M428.25,64.87c-1.51-2.1-3.4-3.91-4.86-6-4-5.8-4.49-13.37-7.88-19.55a6.63,6.63,0,0,0-1.8-2.26,7.5,7.5,0,0,0-1.89-.91c-3.68-1.36-12.37-1.45-16,.12l-6.77.73a19.9,19.9,0,0,0-7.37,1.79c-.21.11-.41.23-.61.36,8.66.61,17.42.93,24.71,4.77,5.54,2.51,5,11.07,8.05,17.1,3,5.54,10.06,7.55,13.58,13.08a20.25,20.25,0,0,1,2.73,11A20.79,20.79,0,0,0,428.25,64.87Z" style="fill: rgb(255, 171, 145);"/><path class="cls-4" d="M249,88.53c-2-2-2-10-5-11-32.63-10-26.76-46.68-31.59-75.37l-3.05,3c-3.36,3.31-6.81,6.76-8.58,11.14-2.08,5.15-1.56,10.93-1,16.46q2,20.31,4.06,40.63a15,15,0,0,0,1.5,6.11c1.87,3.23,5.74,4.56,9.09,6.2,9.38,4.56,16.26,12.91,24.49,19.32a23.39,23.39,0,0,0,8.39,4.59,25.06,25.06,0,0,0,9.34.08,144.81,144.81,0,0,0,31.66-8.17A62,62,0,0,1,249,88.53Z" style="fill: rgb(255, 112, 67);"/><path class="cls-3" d="M302,22.53C298.7,16,297.51,7.88,295.3,1.1H213.48L212.4,2.16c4.83,28.69-1,65.33,31.59,75.37,3,1,3,9,5,11a62,62,0,0,0,39.3,13,253.48,253.48,0,0,0,23.24-10.13,70.42,70.42,0,0,0,10.8-6.2,38.34,38.34,0,0,0,8.28-8.3,36,36,0,0,0,3.8-6.55A40.33,40.33,0,0,0,329,48.53C322,37.53,308,33.53,302,22.53Z" style="fill: rgb(255, 138, 101);"/><path class="cls-2" d="M330.57,30.26c-3-4.18-6.75-7.78-9.67-12-3.58-5.19-5.74-11.1-7.66-17.15H295.3C297.51,7.88,298.7,16,302,22.53c6,11,20,15,27,26a40.33,40.33,0,0,1,5.42,21.81A41.3,41.3,0,0,0,330.57,30.26Z" style="fill: rgb(255, 171, 145);"/><path class="cls-4" d="M1283,278c-1.35-2,0-8.84-2.34-10.21-26-14.19-14.64-44.29-13.76-69.5l-3.11,2c-3.43,2.23-7,4.56-9.22,8-2.66,4-3.23,9-3.72,13.81q-1.79,17.61-3.59,35.21a13,13,0,0,0,.21,5.46c1,3.07,4.08,4.87,6.65,6.84,7.17,5.51,11.57,13.79,17.45,20.66a20.14,20.14,0,0,0,6.34,5.36,21.67,21.67,0,0,0,7.91,1.68,126.08,126.08,0,0,0,28.31-1.45A53.73,53.73,0,0,1,1283,278Z" style="fill: rgb(255, 112, 67);"/><path class="cls-3" d="M1345.92,287.87a33.63,33.63,0,0,0,8.48-5.62,32.18,32.18,0,0,0,4.36-4.9,35,35,0,0,0-.83-19.47c-4-10.56-15.23-16.39-18.42-26.77-3-11.24.78-25.5-7.7-31.66-11-9-25.67-12.56-40.09-16.58a39.15,39.15,0,0,0-7.24,4l-17.54,11.39c-.88,25.21-12.22,55.31,13.76,69.5,2.38,1.37,1,8.17,2.34,10.21a53.73,53.73,0,0,0,31.13,17.85c7.24-1.13,14.42-2.73,21.5-4.57A61,61,0,0,0,1345.92,287.87Z" style="fill: rgb(255, 138, 101);"/><path class="cls-2" d="M1362.44,242.63c-1.81-4.07-4.38-7.77-6.13-11.88-4.75-11.18-3-24.12-6.56-35.72a11.44,11.44,0,0,0-2.25-4.45,13.65,13.65,0,0,0-2.88-2.18c-5.74-3.56-20.39-6.71-27-5.3L1305.94,182c-4.37-.41-8.87-.81-13.06.47-.39.12-.78.25-1.16.39,14.42,4,29.1,7.58,40.09,16.58,8.48,6.16,4.68,20.42,7.7,31.66,3.19,10.38,14.39,16.21,18.42,26.77a35,35,0,0,1,.83,19.47A35.82,35.82,0,0,0,1362.44,242.63Z" style="fill: rgb(255, 171, 145);"/><path class="cls-3" d="M1002.07,200.27c8,15,19,27,30,38,6.53,7.12,16.22,6.14,26.16,3.13,4.62-3.62,8.3-8.51,11.8-13.29l.18-.26c-2.43-16.44-3.21-33-18.14-41.58-12.06-7.75-27.08-7.35-41.23-12.19a26.23,26.23,0,0,0-3.69,2.58,30.68,30.68,0,0,0-3.43,3.41C1004.18,187.36,999.7,194.75,1002.07,200.27Z" style="fill: rgb(255, 138, 101);"/><path class="cls-4" d="M1032.07,238.27c-11-11-22-23-30-38-2.37-5.52,2.11-12.91,1.65-20.2-1.65,1.89-3.13,3.93-4.6,6-3.9,5.41-7.93,11.21-8.38,17.87a10.42,10.42,0,0,0,1,5.65c1.48,2.78,4.51,4.29,7.2,5.92a44.88,44.88,0,0,1,18.39,21.91c1.32,3.4,2.41,7.23,5.39,9.34,2.36,1.68,5.44,1.9,8.34,1.88a75.44,75.44,0,0,0,11.43-1,37.87,37.87,0,0,0,11.1-3.27,27.62,27.62,0,0,0,4.67-3C1048.29,244.41,1038.6,245.39,1032.07,238.27Z" style="fill: rgb(255, 112, 67);"/><path class="cls-2" d="M1070.21,227.85a35.93,35.93,0,0,0,4.38-7.14,27.34,27.34,0,0,0,1.65-12.15,37.34,37.34,0,0,0-5.15-17.55l-2.25-3.5a41.84,41.84,0,0,0-43.5-18.56l-.31.06a46.46,46.46,0,0,0-14.19,5.07c14.15,4.84,29.17,4.44,41.23,12.19C1067,194.8,1067.78,211.41,1070.21,227.85Z" style="fill: rgb(255, 171, 145);"/><path class="cls-3" d="M824.81,33.89c5.13,9.62,12.18,17.31,19.24,24.37,4.18,4.56,10.4,3.93,16.77,2a41.92,41.92,0,0,0,7.56-8.52l.12-.16c-1.56-10.54-2.06-21.19-11.63-26.66-7.73-5-17.36-4.71-26.44-7.82a18.17,18.17,0,0,0-2.36,1.65,19.78,19.78,0,0,0-2.2,2.19C826.16,25.62,823.3,30.35,824.81,33.89Z" style="fill: rgb(255, 138, 101);"/><path class="cls-4" d="M844.05,58.26C837,51.2,829.94,43.51,824.81,33.89c-1.51-3.54,1.35-8.27,1.06-12.95-1.06,1.21-2,2.52-3,3.83-2.5,3.47-5.08,7.19-5.37,11.45a6.74,6.74,0,0,0,.62,3.63c1,1.78,2.89,2.75,4.62,3.8a28.74,28.74,0,0,1,11.79,14c.85,2.18,1.54,4.64,3.45,6a9,9,0,0,0,5.35,1.21,48.55,48.55,0,0,0,7.33-.62,24.43,24.43,0,0,0,7.12-2.09,17.91,17.91,0,0,0,3-1.92C854.45,62.19,848.23,62.82,844.05,58.26Z" style="fill: rgb(255, 112, 67);"/><path class="cls-2" d="M868.5,51.58A23.47,23.47,0,0,0,871.31,47a17.59,17.59,0,0,0,1.06-7.79A23.9,23.9,0,0,0,869.06,28l-1.44-2.24a26.84,26.84,0,0,0-27.89-11.9l-.2,0a30,30,0,0,0-9.1,3.25c9.08,3.11,18.71,2.85,26.44,7.82C866.44,30.39,866.94,41,868.5,51.58Z" style="fill: rgb(255, 171, 145);"/><path class="cls-4" d="M1015.07,272.27c-12-3.68-7-18.32-10-29.21a42.6,42.6,0,0,0-2.55,5,34.82,34.82,0,0,0-1.07,23.93,12.29,12.29,0,0,0,3.37,5.78,14.66,14.66,0,0,0,4.6,2.32c4.47,1.64,9.41,3.28,13.87,1.64,1.37-.5,2.64-1.3,4-1.66,2.86-.7,5.8.49,8.72.81a17.85,17.85,0,0,0,11.16-2.84C1036.81,279.05,1024.45,275.4,1015.07,272.27Z" style="fill: rgb(255, 112, 67);"/><path class="cls-3" d="M1058.76,262.06a27.78,27.78,0,0,0,1-7.54c-9.6,10.63-19.94,22.14-28.68,9.75-6.24-9.8-12.47-21.19-18-32-.29.28-.58.55-.86.85l-.12.13a45.89,45.89,0,0,0-3.65,4.68c-1.19,1.68-2.33,3.4-3.38,5.18,3,10.89-1.94,25.53,10,29.21,9.38,3.13,21.74,6.78,32.14,5.76a21.61,21.61,0,0,0,2.35-1.66A27.82,27.82,0,0,0,1058.76,262.06Z" style="fill: rgb(255, 138, 101);"/><path class="cls-2" d="M1059.75,254.52a24.32,24.32,0,0,0-2.55-10.94A20.65,20.65,0,0,0,1045,233.22a33.68,33.68,0,0,1-6.36-2.63l-2.42-1.29a20,20,0,0,0-23.16,2.92c5.53,10.86,11.76,22.25,18,32C1039.81,276.66,1050.15,265.15,1059.75,254.52Z" style="fill: rgb(255, 171, 145);"/><path class="cls-4" d="M1083.14,762.74c6,9,19,14,28,9a36.62,36.62,0,0,0,18.51-23.11,53.6,53.6,0,0,0-12.51-12.89c-15.41-12.17-34.12-20.4-47.57-34.28a52.75,52.75,0,0,0-9.9,5.67,81.1,81.1,0,0,0-10.78,10.27l-6.86,7.39C1058.53,733.51,1071.21,747.39,1083.14,762.74Z" style="fill: rgb(255, 112, 67);"/><path class="cls-3" d="M1129.65,748.63a36.62,36.62,0,0,1-18.51,23.11c-9,5-22,0-28-9-11.93-15.35-24.61-29.23-41.11-38q-3.13,3.38-6.28,6.76a45.12,45.12,0,0,0-6.14,5.2c.19.35.37.71.54,1.06l.18.38a38.7,38.7,0,0,1,1.81,4.55c10,24,20,52,43,65,8,4,20,1,31,4,4.48,1.49,8.95,3,13.44,4.52,2.15-2.82,3.85-6,5.77-9,4-6.32,9.22-11.78,13.92-17.61C1140.19,774.84,1137.78,760.53,1129.65,748.63Z" style="fill: rgb(255, 138, 101);"/><path class="cls-4" d="M1106.14,811.74c-11-3-23,0-31-4-23-13-33-41-43-65a38.7,38.7,0,0,0-1.81-4.55l-.18-.38c-.17-.35-.35-.71-.54-1.06-2.77,2.91-4.79,6.26-4.95,10.23-.13,3.13,1,6.17,2,9.14,4.39,12.62,7.91,25.67,8.58,39,.24,4.65.13,9.35,1.11,13.9s3.21,9.06,7.11,11.6c5,3.23,11.42,2.67,17.25,1.62s12-2.41,17.54-.47c3.07,1.07,5.77,3.09,8.91,3.94,2.9.78,6,.51,8.95.22,7.07-.66,14.61-1.51,20.07-6.05a22.48,22.48,0,0,0,3.4-3.63C1115.09,814.76,1110.62,813.23,1106.14,811.74Z" style="fill: rgb(255, 112, 67);"/><path class="cls-3" d="M1130.27,725.08c-4.21-2.18-8.7-4-12.88-6.18a78,78,0,0,1-18.87-13.6c-3.94-3.86-8.1-8.45-13.61-8.67a18.9,18.9,0,0,0-7.17,1.55c-2.75,1-5.49,2.07-8.17,3.28,13.45,13.88,32.16,22.11,47.57,34.28a53.6,53.6,0,0,1,12.51,12.89A50.29,50.29,0,0,0,1130.27,725.08Z" style="fill: rgb(255, 138, 101);"/><path class="cls-2" d="M1149.23,751.1c-1.32-5.63-2.85-11.37-6.25-16-3.24-4.44-7.79-7.43-12.71-10a50.29,50.29,0,0,1-.62,23.55c8.13,11.9,10.54,26.21,9.62,41,.63-.79,1.26-1.58,1.87-2.38,5.16-6.75,9.54-14.57,9.86-23.05A49.14,49.14,0,0,0,1149.23,751.1Z" style="fill: rgb(255, 171, 145);"/><path class="cls-2" d="M1203.14,680.74c2.43,8.73,2.74,18.4,4.36,27.41a67.24,67.24,0,0,0,7-10.42,22.45,22.45,0,0,0,2.9-8.1c.43-4-.91-7.88-2.43-11.56a213.84,213.84,0,0,0-11.38-22.32c-1.37-2.44-2.79-4.94-5-6.67-3.76-3-9-3.1-13.76-3.1l-24.16,0c-2.16-.27-2.58,1.68-3.57,3.52C1175.68,656.89,1197.35,659.48,1203.14,680.74Z" style="fill: rgb(255, 171, 145);"/><path class="cls-4" d="M1148.14,716.74c-11-5-10-21-7-32a84.87,84.87,0,0,0,2.57-24,18,18,0,0,0-5.32,4.6,21.77,21.77,0,0,0-2.81,6.32,56.07,56.07,0,0,0-2.77,12.62,66.29,66.29,0,0,0,.84,13.41q1.11,8.37,2.2,16.74c.29,2.21.62,4.51,1.88,6.35,2.22,3.23,6.58,4.06,10.48,4.42a126.58,126.58,0,0,0,14.83.52c3.57-.09,7.21-.32,10.66.62a33.84,33.84,0,0,0,4.51,1.24c3,.38,5.91-.89,8.57-2.31a67.36,67.36,0,0,0,8.13-5.13C1178.78,722.07,1162.79,723.39,1148.14,716.74Z" style="fill: rgb(255, 112, 67);"/><path class="cls-3" d="M1141.14,684.74c-3,11-4,27,7,32,14.65,6.65,30.64,5.33,46.77,3.41a68.81,68.81,0,0,0,12.59-12c-1.62-9-1.93-18.68-4.36-27.41-5.79-21.26-27.46-23.85-46.06-31.21a7,7,0,0,1-1,1.46c-1.89,2-2,2.23-4,4.17-2.39,2.32-5.51,3.83-8.36,5.59A84.87,84.87,0,0,1,1141.14,684.74Z" style="fill: rgb(255, 138, 101);"/><path class="cls-2" d="M1291.14,662.74c5.28,10.55,4,23.17,6.12,34.42a67.6,67.6,0,0,1,3.37-7.34c2.64-4.92,5.95-9.65,7-15.13a19.47,19.47,0,0,0-4.78-16.45c-3.67-4-8.82-6.2-13.84-8.23a67,67,0,0,0-11.83-3.93,71.94,71.94,0,0,0-13.69-1l-17.38-.16c-4.53,0-9.11-.07-13.5,1a27,27,0,0,0-8.41,3.69c17.58,10.89,40.5,3.56,60,9.13C1286.14,658.74,1289.14,660.74,1291.14,662.74Z" style="fill: rgb(255, 171, 145);"/><path class="cls-4" d="M1236.14,707.74c-11.34-9.46-17.32-29.63-21.32-47.86l0,.06a27.66,27.66,0,0,0-1.07,22.61c1.94,8.67-3.65,15-1.71,23.66.83,3.69,1.71,7.49,3.89,10.58,3.1,4.38,8.31,6.66,13.3,8.63,6,2.36,12.21,4.62,18.64,4.4,5.59-.19,11-2.25,16.53-2.85,5.07-.55,10.29.1,15.2-1.28a19.12,19.12,0,0,0,11.23-8.74c.14-.25.25-.5.38-.74C1270.88,718.05,1251,719.37,1236.14,707.74Z" style="fill: rgb(255, 112, 67);"/><path class="cls-3" d="M1297.26,697.16c-2.09-11.25-.84-23.87-6.12-34.42-2-2-5-4-7-4-19.48-5.57-42.4,1.76-60-9.13a27.53,27.53,0,0,0-9.34,10.27c4,18.23,10,38.4,21.32,47.86,14.87,11.63,34.74,10.31,55,8.47,2-3.79,2.73-8.1,3.85-12.24A67.77,67.77,0,0,1,1297.26,697.16Z" style="fill: rgb(255, 138, 101);"/><path class="cls-2" d="M1196.61,828.93c2,14.35-3,29.71-4.36,44.17a93.54,93.54,0,0,1,5.52-8.31c4.07-5.46,8.76-10.54,11.4-17.11,2.8-7,2.9-15.19.26-21.54-2.41-5.81-6.8-9.8-11.12-13.52a59,59,0,0,0-10.44-7.69c-4.14-2.21-8.67-3.37-13.16-4.52l-17-4.34c-4.43-1.14-8.93-2.27-13.57-2a24.94,24.94,0,0,0-9.38,2.57c14,17.71,38.74,14.09,56.22,25.65C1192.9,822.77,1195.25,826,1196.61,828.93Z" style="fill: rgb(255, 171, 145);"/><path class="cls-4" d="M1129,871.62c-8.3-14.44-8.09-40.9-6.53-64.47l0,.07a43.82,43.82,0,0,0-7.88,27.8c-.7,11.22-8.1,17.72-8.81,28.94-.29,4.78-.58,9.7.64,14.06,1.72,6.17,6.16,10.24,10.46,13.87,5.17,4.37,10.62,8.65,17,9.91,5.56,1.11,11.46-.16,17.11.42,5.15.52,10.09,2.58,15.32,2,5-.52,10-3.52,13.68-8.16.21-.27.4-.55.6-.83C1160,892.71,1140.08,889.6,1129,871.62Z" style="fill: rgb(255, 112, 67);"/><path class="cls-3" d="M1192.25,873.1c1.33-14.46,6.37-29.82,4.36-44.17-1.36-3-3.71-6.16-5.67-6.63-17.48-11.56-42.22-7.94-56.22-25.65a33.54,33.54,0,0,0-12.27,10.5c-1.56,23.57-1.77,50,6.53,64.47,11.1,18,31,21.09,51.54,23.65,3.08-4.22,5.12-9.39,7.47-14.26C1189.29,878.29,1190.72,875.65,1192.25,873.1Z" style="fill: rgb(255, 138, 101);"/><path class="cls-3" d="M1054.14,729.74c10,4,19-6,28-3,5.09,1.78,10,3.82,14.81,6,3.33.31,6.67.75,10,.87,2.91.1,5.94-.07,8.52-1.44a17.75,17.75,0,0,0,5-4.54c-3.13-13.51,1.63-28.69-9.38-38.84-6.35-5.73-15.13-8.62-23.51-12.28a33.28,33.28,0,0,0-10.33,2.2c-7.29,3-13.3,9.42-21.15,10.05-6.16,3.49-10.88,5.45-16.19,9.56C1039.79,711.5,1040.84,725.82,1054.14,729.74Z" style="fill: rgb(255, 138, 101);"/><path class="cls-4" d="M1082.14,726.74c-9-3-18,7-28,3-13.3-3.92-14.35-18.24-14.18-31.47-.48.37-1,.75-1.44,1.15a14.92,14.92,0,0,0-4.5,5.22,15.65,15.65,0,0,0-.86,6.25l0,10.32c0,3.73,0,7.69,2,10.84,1.88,3,5.19,4.68,8.49,5.85a41.35,41.35,0,0,0,26.49.29c5-1.65,9.72-4.27,14.9-5.29a41.59,41.59,0,0,1,11.9-.21C1092.13,730.56,1087.23,728.52,1082.14,726.74Z" style="fill: rgb(255, 112, 67);"/><path class="cls-2" d="M1120.52,727.58l.57-.68c2.39-2.88,4.89-6,5.23-9.73a18.57,18.57,0,0,0-1-6.66l-2.6-9.34c-1.84-6.62-3.88-13.59-8.9-18.28-5.64-5.26-13.89-6.56-21.61-6.58-1.52,0-3,0-4.57.15,8.38,3.66,17.16,6.55,23.51,12.28C1122.15,698.89,1117.39,714.07,1120.52,727.58Z" style="fill: rgb(255, 171, 145);"/><path class="cls-4" d="M1173.14,742.74c-2.57-4.29,1.47-10-.48-15.39-.22,1-.41,1.93-.67,2.84-1.11,3.76-4,7-4.22,10.92s2.12,7.37,5.21,9.58,6.84,3.28,10.51,4.23a30.83,30.83,0,0,0,3.91.81,25,25,0,0,0,5.26-.05,33.6,33.6,0,0,0,11.54-3C1192.16,753.05,1179.86,753.19,1173.14,742.74Z" style="fill: rgb(255, 112, 67);"/><path class="cls-3" d="M1210.36,748.08c-3.1-14.4-15-22.61-28.84-28.55l-6,2.73c-1.74,1-2.34,3-2.81,5.09,1.95,5.34-2.09,11.1.48,15.39,6.72,10.45,19,10.31,31.06,10a20.73,20.73,0,0,0,3.23-1.93A17.49,17.49,0,0,0,1210.36,748.08Z" style="fill: rgb(255, 138, 101);"/><path class="cls-2" d="M1210.36,748.08a14.15,14.15,0,0,0,3.6-10.8,16.49,16.49,0,0,0-2.23-6.07,28,28,0,0,0-25.92-13.62l-4.29,1.94C1195.37,725.47,1207.26,733.68,1210.36,748.08Z" style="fill: rgb(255, 171, 145);"/><path class="cls-4" d="M1221.32,722.54a4.21,4.21,0,0,0-.62.71c-1.31,2-.52,4.61.31,6.83l2.19,5.89a8.49,8.49,0,0,0,1.59,3c1.54,1.64,4,1.82,6.29,1.9,1.58,0,3.3.06,4.57-.87a4.68,4.68,0,0,0,1.13-1.22C1227.92,741,1223.36,731.29,1221.32,722.54Z" style="fill: rgb(255, 112, 67);"/><path class="cls-3" d="M1236.78,738.78a12.85,12.85,0,0,0,.68-1.12,19,19,0,0,0,1.78-4.34c-2.34-5.62-8.25-9.42-14-12.7-.39.11-.78.24-1.16.38a7.83,7.83,0,0,0-2.71,1.54C1223.36,731.29,1227.92,741,1236.78,738.78Z" style="fill: rgb(255, 138, 101);"/><path class="cls-2" d="M1238.73,727.65a11.34,11.34,0,0,0-3.13-3.08l-4.72-3.57a6.27,6.27,0,0,0-4-.71h0a9.38,9.38,0,0,0-1.66.33c5.8,3.28,11.71,7.08,14,12.7A7.37,7.37,0,0,0,1238.73,727.65Z" style="fill: rgb(255, 171, 145);"/><path class="cls-2" d="M1270.22,750.73c0-.39,0-.78,0-1.16-.13-4-1.93-8.31-5.55-10.11-1.85-.92-3.38-2.21-5.45-2.37a3.33,3.33,0,0,1,1.21.55l-1.21-.55a10.27,10.27,0,0,0-5-.09C1261.34,740.34,1266.49,744.59,1270.22,750.73Z" style="fill: rgb(255, 171, 145);"/><path class="cls-3" d="M1267.84,756.62a8.78,8.78,0,0,0,2.38-5.89c-3.73-6.14-8.88-10.39-15.94-13.73a10.82,10.82,0,0,0-7.07,5C1251.29,750.38,1259.47,754.07,1267.84,756.62Z" style="fill: rgb(255, 138, 101);"/><path class="cls-4" d="M1247.21,742c-.12.21-.24.41-.35.62a10.33,10.33,0,0,0,3.82,12.88,16,16,0,0,0,4.58,1.67,43.75,43.75,0,0,0,6,1,9.56,9.56,0,0,0,5.36-.65,5.48,5.48,0,0,0,1.19-.88C1259.47,754.07,1251.29,750.38,1247.21,742Z" style="fill: rgb(255, 112, 67);"/><path class="cls-4" d="M1288.2,727.06l-.32.07a4.89,4.89,0,0,0-1.87.72,3.9,3.9,0,0,0-1.27,2,17.5,17.5,0,0,0-.6,5.16q-.11,6.42.11,12.83a6.24,6.24,0,0,0,1,3.88,5.31,5.31,0,0,0,2.53,1.5,18.39,18.39,0,0,0,13.19-.78,20.07,20.07,0,0,1-8.83-2.75C1284,745.2,1290.63,734.9,1288.2,727.06Z" style="fill: rgb(255, 112, 67);"/><path class="cls-3" d="M1306.26,748.52a8,8,0,0,0,.91-1.82c-3.68-8.77-5.1-16.79-13.72-20.75-1.71.3-3.4.69-5.25,1.11,2.43,7.84-4.22,18.14,3.94,22.68a20.07,20.07,0,0,0,8.83,2.75,17.69,17.69,0,0,0,1.84-.94A10.69,10.69,0,0,0,1306.26,748.52Z" style="fill: rgb(255, 138, 101);"/><path class="cls-2" d="M1307.17,746.7a19.61,19.61,0,0,0,.82-6.13c.07-3.53.1-7.21-1.43-10.4s-5.1-5.68-8.51-4.79a41.58,41.58,0,0,0-4.6.57C1302.07,729.91,1303.49,737.93,1307.17,746.7Z" style="fill: rgb(255, 171, 145);"/><path class="cls-4" d="M980.56,696.63l-.32.08a4.74,4.74,0,0,0-1.87.72,3.93,3.93,0,0,0-1.27,2,17.94,17.94,0,0,0-.6,5.17q-.09,6.4.11,12.82a6.27,6.27,0,0,0,1,3.89,5.31,5.31,0,0,0,2.53,1.5,18.42,18.42,0,0,0,13.2-.79,19.94,19.94,0,0,1-8.83-2.75C976.34,714.78,983,704.48,980.56,696.63Z" style="fill: rgb(255, 112, 67);"/><path class="cls-3" d="M998.62,718.1a8.05,8.05,0,0,0,.92-1.83c-3.69-8.77-5.11-16.78-13.73-20.74-1.71.3-3.39.68-5.25,1.1,2.43,7.85-4.22,18.15,4,22.68a19.94,19.94,0,0,0,8.83,2.75,18.58,18.58,0,0,0,1.83-.94A10.56,10.56,0,0,0,998.62,718.1Z" style="fill: rgb(255, 138, 101);"/><path class="cls-2" d="M999.54,716.27a19.54,19.54,0,0,0,.81-6.12c.08-3.53.1-7.21-1.43-10.4s-5.09-5.69-8.51-4.79a39.32,39.32,0,0,0-4.6.57C994.43,699.49,995.85,707.5,999.54,716.27Z" style="fill: rgb(255, 171, 145);"/><path class="cls-4" d="M958.39,942.75l-.33.07a5,5,0,0,0-1.87.72,4,4,0,0,0-1.27,2.05,17.87,17.87,0,0,0-.59,5.16q-.11,6.42.1,12.83a6.31,6.31,0,0,0,1,3.88A5.36,5.36,0,0,0,958,969a18.44,18.44,0,0,0,13.19-.79,20.07,20.07,0,0,1-8.83-2.75C954.17,960.89,960.81,950.59,958.39,942.75Z" style="fill: rgb(255, 112, 67);"/><path class="cls-3" d="M976.44,964.21a8,8,0,0,0,.92-1.82c-3.69-8.77-5.1-16.78-13.73-20.75-1.71.3-3.39.69-5.24,1.11,2.42,7.84-4.22,18.14,3.94,22.68a20.07,20.07,0,0,0,8.83,2.75,17.53,17.53,0,0,0,1.83-.94A10.38,10.38,0,0,0,976.44,964.21Z" style="fill: rgb(255, 138, 101);"/><path class="cls-2" d="M977.36,962.39a19.61,19.61,0,0,0,.82-6.13c.07-3.53.09-7.21-1.43-10.39s-5.1-5.69-8.52-4.8a42.19,42.19,0,0,0-4.6.57C972.26,945.61,973.67,953.62,977.36,962.39Z" style="fill: rgb(255, 171, 145);"/><path class="cls-3" d="M1017.19,694.33c2.46,4.19,7,6.31,12.15,6.81l.74-.06a16.25,16.25,0,0,0,6.09-1.5,10.34,10.34,0,0,0,2.57-2c3.82-5.69,6.15-12.17,3.1-18.29-2.16-5.25-8.59-6.48-14.28-8.85a3.13,3.13,0,0,1-1.32.43,12.45,12.45,0,0,0-3,.7,10.25,10.25,0,0,0-3.37,2.52C1018.08,681.43,1013.4,688.49,1017.19,694.33Z" style="fill: rgb(255, 138, 101);"/><path class="cls-4" d="M1017.19,694.33c-3.79-5.84.89-12.9,2.64-20.21l-.21.22c-5.65,6-9.25,14.39-7.82,22.51a6,6,0,0,0,1.35,3.2c1.29,1.32,3.36,1.41,5.2,1.41,3.67,0,7.34,0,11-.32C1024.24,700.64,1019.65,698.52,1017.19,694.33Z" style="fill: rgb(255, 112, 67);"/><path class="cls-2" d="M1041.84,679.32c3.05,6.12.72,12.6-3.1,18.29a22.41,22.41,0,0,0,4.25-7.13,21.86,21.86,0,0,0,2-7.85,8.73,8.73,0,0,0-3.1-7.21c-1.72-1.29-4-1.67-5.88-2.67-1.16-.61-2.2-1.45-3.36-2.07a5.12,5.12,0,0,0-3.8-.64,3.07,3.07,0,0,0-1.32.43C1033.25,672.84,1039.68,674.07,1041.84,679.32Z" style="fill: rgb(255, 171, 145);"/><path class="cls-4" d="M1016.89,665.49c-.65-1.39.84-5.46-.49-6.53-14.72-11.18-4.91-28.7-2-44.18l-2.11,1c-2.32,1.06-4.72,2.17-6.43,4.06-2,2.23-2.83,5.27-3.58,8.18q-2.76,10.71-5.51,21.4a8.19,8.19,0,0,0-.37,3.39c.34,2,2.06,3.39,3.46,4.84,3.92,4.07,5.86,9.6,8.85,14.39a12.51,12.51,0,0,0,3.41,3.89,13.35,13.35,0,0,0,4.73,1.78,78.2,78.2,0,0,0,17.61,1.75A33.58,33.58,0,0,1,1016.89,665.49Z" style="fill: rgb(255, 112, 67);"/><path class="cls-3" d="M1054.78,677.45a20.83,20.83,0,0,0,5.76-2.67,20.29,20.29,0,0,0,3.15-2.62,21.9,21.9,0,0,0,1.31-12.1c-1.51-6.89-7.88-11.53-8.88-18.24-.82-7.22,2.86-15.67-1.8-20.26-6-6.58-14.68-10.15-23.2-14a25,25,0,0,0-4.84,1.8l-11.9,5.4c-2.89,15.48-12.7,33,2,44.18,1.33,1.07-.16,5.14.49,6.53a33.58,33.58,0,0,0,17.55,13.92,136.29,136.29,0,0,0,13.7-.82A37.18,37.18,0,0,0,1054.78,677.45Z" style="fill: rgb(255, 138, 101);"/><path class="cls-2" d="M1069.2,651.07c-.74-2.68-2-5.21-2.67-7.9-1.9-7.35.41-15.17-.72-22.67a7.06,7.06,0,0,0-1-3,8.31,8.31,0,0,0-1.57-1.62c-3.22-2.73-12-6-16.17-5.79l-7.11-1.77c-2.66-.65-5.4-1.32-8.11-.92-.25,0-.5.08-.75.13,8.52,3.83,17.25,7.4,23.2,14,4.66,4.59,1,13,1.8,20.26,1,6.71,7.37,11.35,8.88,18.24a21.9,21.9,0,0,1-1.31,12.1A22.37,22.37,0,0,0,1069.2,651.07Z" style="fill: rgb(255, 171, 145);"/><path class="cls-3" d="M1201.54,809.55c8,15,19,27,30,38,6.52,7.12,16.22,6.14,26.16,3.12,4.62-3.61,8.29-8.5,11.79-13.28l.19-.26c-2.44-16.44-3.22-33-18.14-41.58-12.06-7.75-27.08-7.35-41.24-12.19a27.45,27.45,0,0,0-3.69,2.58,30.59,30.59,0,0,0-3.42,3.41C1203.64,796.64,1199.17,804,1201.54,809.55Z" style="fill: rgb(255, 138, 101);"/><path class="cls-4" d="M1231.54,847.55c-11-11-22-23-30-38-2.37-5.52,2.1-12.91,1.65-20.2-1.65,1.89-3.13,3.93-4.6,6-3.9,5.41-7.94,11.21-8.39,17.87a10.52,10.52,0,0,0,1,5.65c1.48,2.78,4.51,4.29,7.2,5.92a44.81,44.81,0,0,1,18.38,21.91c1.33,3.4,2.42,7.23,5.39,9.34,2.37,1.68,5.44,1.9,8.35,1.88a75.44,75.44,0,0,0,11.43-1,37.87,37.87,0,0,0,11.1-3.27,27.45,27.45,0,0,0,4.67-3C1247.76,853.69,1238.06,854.67,1231.54,847.55Z" style="fill: rgb(255, 112, 67);"/><path class="cls-2" d="M1269.68,837.13a35.88,35.88,0,0,0,4.37-7.14,27.21,27.21,0,0,0,1.66-12.15,37.46,37.46,0,0,0-5.15-17.55l-2.25-3.5a41.86,41.86,0,0,0-43.51-18.56l-.3.06a46.42,46.42,0,0,0-14.2,5.07c14.16,4.84,29.18,4.44,41.24,12.19C1266.46,804.08,1267.24,820.69,1269.68,837.13Z" style="fill: rgb(255, 171, 145);"/><path class="cls-4" d="M1214.54,881.55c-12-3.68-7-18.33-10-29.21a41.12,41.12,0,0,0-2.55,5,34.88,34.88,0,0,0-1.08,23.93,12.23,12.23,0,0,0,3.38,5.78,14.66,14.66,0,0,0,4.6,2.32c4.47,1.64,9.4,3.28,13.87,1.64a43,43,0,0,1,4-1.66c2.85-.7,5.79.49,8.72.81a17.85,17.85,0,0,0,11.16-2.84C1236.28,888.33,1223.91,884.68,1214.54,881.55Z" style="fill: rgb(255, 112, 67);"/><path class="cls-3" d="M1258.23,871.34a27.83,27.83,0,0,0,1-7.54c-9.61,10.63-19.94,22.14-28.68,9.75-6.24-9.8-12.48-21.19-18-32-.29.28-.58.55-.85.85l-.12.13a46,46,0,0,0-3.66,4.68c-1.18,1.68-2.33,3.4-3.37,5.18,3,10.88-1.94,25.53,10,29.21,9.37,3.13,21.74,6.78,32.14,5.76a22.63,22.63,0,0,0,2.35-1.66A27.82,27.82,0,0,0,1258.23,871.34Z" style="fill: rgb(255, 138, 101);"/><path class="cls-2" d="M1259.22,863.8a24.2,24.2,0,0,0-2.56-10.94,20.59,20.59,0,0,0-12.19-10.36,34.24,34.24,0,0,1-6.36-2.63l-2.41-1.3a20,20,0,0,0-23.17,2.93c5.53,10.86,11.77,22.25,18,32C1239.28,885.94,1249.61,874.43,1259.22,863.8Z" style="fill: rgb(255, 171, 145);"/><path class="cls-2" d="M812.78,856.33l-16.33,1.78h0Z" style="fill: rgb(255, 171, 145);"/><path class="cls-4" d="M713.33,880.58c-12-3.67-7-18.32-10-29.21a42,42,0,0,0-2.55,5,34.79,34.79,0,0,0-1.07,23.92,12.16,12.16,0,0,0,3.37,5.78,14.9,14.9,0,0,0,4.6,2.33c4.47,1.63,9.4,3.28,13.87,1.63a40.43,40.43,0,0,1,4.05-1.65c2.85-.71,5.79.48,8.72.8a17.91,17.91,0,0,0,11.16-2.83C735.07,887.37,722.71,883.71,713.33,880.58Z" style="fill: rgb(255, 112, 67);"/><path class="cls-3" d="M757,870.38a27.85,27.85,0,0,0,1-7.55c-9.61,10.64-19.94,22.14-28.68,9.75-6.24-9.8-12.48-21.19-18-32-.28.27-.58.54-.85.84l-.12.13a44.53,44.53,0,0,0-3.65,4.68c-1.19,1.69-2.34,3.41-3.38,5.18,3,10.89-1.94,25.54,10,29.21,9.38,3.13,21.74,6.79,32.14,5.77a24.25,24.25,0,0,0,2.35-1.66A27.86,27.86,0,0,0,757,870.38Z" style="fill: rgb(255, 138, 101);"/><path class="cls-2" d="M758,862.83a24.23,24.23,0,0,0-2.56-10.94,20.64,20.64,0,0,0-12.18-10.36,33,33,0,0,1-6.36-2.63l-2.42-1.29a20,20,0,0,0-23.17,2.93c5.53,10.85,11.77,22.24,18,32C738.07,885,748.4,873.47,758,862.83Z" style="fill: rgb(255, 171, 145);"/><path class="cls-2" d="M1250.17,261.11a16.5,16.5,0,0,0-2.44-.64l2.72,1.16A2.36,2.36,0,0,0,1250.17,261.11Z" style="fill: rgb(255, 171, 145);"/><path class="cls-4" d="M1206,293c-2.06-8.92,2-17.37,2.82-25.68a27.73,27.73,0,0,0-6.2,3.76c-4.31,3.63-6.7,9.15-7.56,14.72-1.26,8.18.49,16.61,3.63,24.27s7.65,14.68,12.12,21.65a15.93,15.93,0,0,0,3.46,4.23c2.09,1.61,4.83,2.07,7.46,2.32a66.58,66.58,0,0,0,27.86-3.37c-9.81-.71-19-3.31-26.59-10.9A53.2,53.2,0,0,1,1206,293Z" style="fill: rgb(255, 112, 67);"/><path class="cls-3" d="M1268,304c-3-13-13-22-20-34-3.3-5.94-10.94-6.65-17.78-9.32a82.87,82.87,0,0,0-20.75,6.33l-.65.31c-.82,8.31-4.88,16.76-2.82,25.68a53.2,53.2,0,0,0,17,31c7.59,7.59,16.78,10.19,26.59,10.9A66.66,66.66,0,0,0,1269.53,324,49.54,49.54,0,0,0,1268,304Z" style="fill: rgb(255, 138, 101);"/><path class="cls-2" d="M1248,270c7,12,17,21,20,34a49.54,49.54,0,0,1,1.53,20l.21-.17a23.65,23.65,0,0,0,6.62-7.47c2.27-4.5,2-9.92.61-14.75s-3.93-9.28-6.11-13.83c-2.68-5.61-4.93-11.48-8.44-16.62-3-4.44-7.22-8.36-12.25-10.06a2.36,2.36,0,0,1,.28.52l-2.72-1.16a16.5,16.5,0,0,1,2.44.64c-.82-1.21-2.66-1.5-4.2-1.54a82.27,82.27,0,0,0-15.75,1.11C1237.06,263.35,1244.7,264.06,1248,270Z" style="fill: rgb(255, 171, 145);"/><path class="cls-2" d="M1163.58,169.55c-1.91-.18-3.83-.28-5.75-.34l-1.58.23Z" style="fill: rgb(255, 171, 145);"/><path class="cls-2" d="M1172,186c2.62,8.53-2.07,19.21-1.09,27.81a34.78,34.78,0,0,0,7.26-13.55c1.27-4.9,1.26-10,1.24-15.07,0-3.69-.08-7.6-2-10.72s-5.85-5.08-9.65-5.62a34.94,34.94,0,0,0-9.89.36c1.92.06,3.84.16,5.75.34l-7.33-.11,1.58-.23a101.51,101.51,0,0,0-13,.4,17.66,17.66,0,0,0-5.2,1.08,10.62,10.62,0,0,0-1.49.79C1149.9,178.67,1168.45,170.89,1172,186Z" style="fill: rgb(255, 171, 145);"/><path class="cls-4" d="M1135,205c-7-9,2-17-1-26a12.16,12.16,0,0,1-.37-3.35,56.59,56.59,0,0,0-6.54,11.2c-1.76,3.65-3.52,7.53-3.16,11.56.44,5.05,4.1,9.19,7.78,12.68a122.87,122.87,0,0,0,12.58,10.42c2.24,1.61,4.63,3.18,7.35,3.62,3.27.52,6.47-.67,9.34-2.46C1150.82,220.43,1141.77,214.24,1135,205Z" style="fill: rgb(255, 112, 67);"/><path class="cls-3" d="M1170.91,213.81c-1-8.6,3.71-19.28,1.09-27.81-3.55-15.11-22.1-7.33-33.91-14.52a16,16,0,0,0-3.37,2.89c-.38.41-.74.84-1.09,1.28A12.16,12.16,0,0,0,1134,179c3,9-6,17,1,26,6.77,9.24,15.82,15.43,26,17.67a33.37,33.37,0,0,0,3.18-2.29A48.17,48.17,0,0,0,1170.91,213.81Z" style="fill: rgb(255, 138, 101);"/><path class="cls-2" d="M1168.53,225.74c2.63,8.53-2.07,19.21-1.09,27.81A34.85,34.85,0,0,0,1174.7,240c1.27-4.9,1.26-10,1.24-15.07,0-3.69-.08-7.6-2-10.72s-5.85-5.08-9.65-5.62a34.87,34.87,0,0,0-9.88.36c1.91.06,3.83.16,5.74.33l-7.32-.1,1.58-.23a101.66,101.66,0,0,0-13.06.4,17.66,17.66,0,0,0-5.2,1.08,10.62,10.62,0,0,0-1.49.79C1146.43,218.41,1165,210.63,1168.53,225.74Z" style="fill: rgb(255, 171, 145);"/><path class="cls-4" d="M1131.53,244.74c-7-9,2-17-1-26a12.6,12.6,0,0,1-.37-3.35,56.59,56.59,0,0,0-6.54,11.2c-1.75,3.64-3.52,7.53-3.16,11.56.44,5,4.1,9.19,7.78,12.68a121.48,121.48,0,0,0,12.58,10.41c2.24,1.62,4.63,3.19,7.35,3.63,3.27.52,6.47-.67,9.34-2.46C1147.35,260.17,1138.3,254,1131.53,244.74Z" style="fill: rgb(255, 112, 67);"/><path class="cls-3" d="M1167.44,253.55c-1-8.6,3.72-19.28,1.09-27.81-3.55-15.11-22.1-7.33-33.91-14.52a16.27,16.27,0,0,0-3.37,2.89c-.38.41-.74.84-1.09,1.28a12.6,12.6,0,0,0,.37,3.35c3,9-6,17,1,26,6.77,9.24,15.82,15.43,26,17.67a32.14,32.14,0,0,0,3.18-2.29A49.32,49.32,0,0,0,1167.44,253.55Z" style="fill: rgb(255, 138, 101);"/><path class="cls-2" d="M1199.19,236.8c1.46,4.76-1.16,10.73-.61,15.54a19.51,19.51,0,0,0,4.06-7.58,32.92,32.92,0,0,0,.69-8.42c0-2.06,0-4.24-1.14-6a7.52,7.52,0,0,0-5.39-3.14,19.74,19.74,0,0,0-5.53.2c1.07,0,2.14.09,3.21.19l-4.09-.06.88-.13a57.44,57.44,0,0,0-7.3.22,9.81,9.81,0,0,0-2.9.61,5.6,5.6,0,0,0-.84.44C1186.83,232.7,1197.2,228.35,1199.19,236.8Z" style="fill: rgb(255, 171, 145);"/><path class="cls-4" d="M1178.51,247.42c-3.92-5,1.11-9.51-.56-14.54a6.82,6.82,0,0,1-.21-1.87,32.06,32.06,0,0,0-3.66,6.26c-1,2-2,4.21-1.76,6.46.25,2.83,2.29,5.14,4.35,7.09a68.7,68.7,0,0,0,7,5.82,10.1,10.1,0,0,0,4.11,2,7.7,7.7,0,0,0,5.22-1.38A24.68,24.68,0,0,1,1178.51,247.42Z" style="fill: rgb(255, 112, 67);"/><path class="cls-3" d="M1198.58,252.34c-.55-4.81,2.07-10.78.61-15.54-2-8.45-12.36-4.1-19-8.12a8.77,8.77,0,0,0-1.88,1.62c-.21.23-.41.47-.61.71a6.82,6.82,0,0,0,.21,1.87c1.67,5-3.36,9.5.56,14.54a24.68,24.68,0,0,0,14.52,9.87,17.46,17.46,0,0,0,1.78-1.28A27.82,27.82,0,0,0,1198.58,252.34Z" style="fill: rgb(255, 138, 101);"/><path class="cls-2" d="M1244.26,158.86a14,14,0,0,0-1.35-5.77c-1.54-2.79-4.62-4.32-7.57-5.53a29.71,29.71,0,0,0-10.83-2.65c-3.66,0-7.37.22-9.78,2.93,8.74,3.14,19.79.72,23.27,11.16,1.89,7.58-3.38,16.05-.55,23.72l1.48-2.71c2.07-3.81,4.16-7.69,5-11.94A34.21,34.21,0,0,0,1244.26,158.86Z" style="fill: rgb(255, 171, 145);"/><path class="cls-3" d="M1237.45,182.72c-2.83-7.67,2.44-16.14.55-23.72-3.48-10.44-14.53-8-23.27-11.16l-.15.16c-4.59,1.55-4.77,2.13-8.82,3.56-1,13.32-5,27,.24,38.44,3.93,10.21,14,9.93,23.49,5.47.33-.43.66-.86,1-1.3A110.43,110.43,0,0,0,1237.45,182.72Z" style="fill: rgb(255, 138, 101);"/><path class="cls-4" d="M1206,190c-5.26-11.41-1.29-25.12-.24-38.44l-.86.29a11.32,11.32,0,0,0-3.57,1.71c-2.32,1.89-2.74,5.22-2.93,8.21q-.93,14.46-.43,29a7.12,7.12,0,0,0,.53,3c.69,1.42,2.2,2.22,3.62,2.92l13.91,7c1.32.66,2.77,1.34,4.21,1a6.29,6.29,0,0,0,3-2,66.14,66.14,0,0,0,6.27-7.2C1220,199.93,1209.93,200.21,1206,190Z" style="fill: rgb(255, 112, 67);"/><path class="cls-2" d="M1195.16,430.38c18,8-10,29-1,42,2.64,3.69,7.79,2.1,13.23-1.11a15.07,15.07,0,0,0,1.73-3.48c1.24-3.71.79-7.74.37-11.63-1-9.86-1.79-20.05,1.14-29.54a27,27,0,0,0,1.61-6.39c.12-2.21-.63-4.62-2.5-5.79a8.09,8.09,0,0,0-4.48-.9,41.42,41.42,0,0,0-8.45,1c-2.68.61-5.3,1.49-8,1.95a49.47,49.47,0,0,1-8.6.48c-5.57,0-11.15-.24-16.72-.06-1.15,0-2.31.1-3.46.2C1166.72,428.62,1185.33,425.91,1195.16,430.38Z" style="fill: rgb(255, 171, 145);"/><path class="cls-4" d="M1151.16,459.38c-3.43-10.3-3.93-22.8-7.79-34.36a20.67,20.67,0,0,0-4.51,10.34c-1.26,5.22-2,5.84-3.25,11.06a26.35,26.35,0,0,0-1,7.3c.24,5.8,4.18,10.71,7.92,15.15,5.37,6.37,11.18,13,19.13,15.51a34.69,34.69,0,0,0,12.81,1C1163.41,480.12,1154.64,471.55,1151.16,459.38Z" style="fill: rgb(255, 112, 67);"/><path class="cls-3" d="M1204,475.21a22,22,0,0,0,3.41-3.94c-5.44,3.21-10.59,4.8-13.23,1.11-9-13,19-34,1-42-9.83-4.47-28.44-1.76-35.14-13.27a29.28,29.28,0,0,0-8.41,1.78,20.65,20.65,0,0,0-8.24,6.13c3.86,11.56,4.36,24.06,7.79,34.36,3.48,12.17,12.25,20.74,23.26,26l1.92-.16C1186.27,484.26,1196.63,482,1204,475.21Z" style="fill: rgb(255, 138, 101);"/><path class="cls-2" d="M1316.29,366.09a6.24,6.24,0,0,0-1.5-1.49,18.94,18.94,0,0,0-3.37-.76Z" style="fill: rgb(255, 171, 145);"/><path class="cls-2" d="M1340.44,357.46c-2.43-7.57-8.21-14.45-15.65-16.86-2.46-1.75-6.09-1.85-9.27-1.72-8.69.34-17.52.82-25.74,3.64a40.9,40.9,0,0,0-6.63,3c15.77,4.74,32.75,5.31,43.78,15.61,9.32,8.54,4.77,23.71,4.61,38a23.56,23.56,0,0,0,5.62-5c2-2.76,2.82-6.19,3.47-9.53C1342.36,375.59,1343.23,366.15,1340.44,357.46Z" style="fill: rgb(255, 171, 145);"/><path class="cls-3" d="M1311.79,413l.94-.66L1331,399.51l.55-.39c.16-14.32,4.71-29.49-4.61-38-11-10.3-28-10.87-43.78-15.61a31.38,31.38,0,0,0-10.66,9.44c2.69,15,3.68,29.7,8.44,43.17C1285.56,410.26,1297.93,413,1311.79,413Z" style="fill: rgb(255, 138, 101);"/><path class="cls-4" d="M1280.93,398.09c-4.76-13.47-5.75-28.19-8.44-43.17a25.2,25.2,0,0,0-2.18,3.86c-2.17,4.86-2.67,10.29-2.92,15.61a106.77,106.77,0,0,0,.72,20.22c.78,5.35,2.29,10.87,6,14.79,5.09,5.35,13.05,6.55,20.38,7.44,3.32.4,6.74.8,10,0a23.75,23.75,0,0,0,7.32-3.79C1297.93,413,1285.56,410.26,1280.93,398.09Z" style="fill: rgb(255, 112, 67);"/><path class="cls-2" d="M1374.72,356.32c-1.82-5.67-6.13-10.82-11.7-12.61-1.85-1.31-4.56-1.38-6.94-1.29-6.5.25-13.09.61-19.25,2.72a30.45,30.45,0,0,0-4.95,2.22c11.79,3.54,24.49,4,32.74,11.67,7,6.39,3.56,17.73,3.45,28.44a17.2,17.2,0,0,0,4.2-3.77,17.45,17.45,0,0,0,2.59-7.13C1376.16,369.87,1376.81,362.82,1374.72,356.32Z" style="fill: rgb(255, 171, 145);"/><path class="cls-3" d="M1353.3,397.85l.7-.49,13.66-9.6.41-.29c.11-10.71,3.52-22.05-3.45-28.44-8.25-7.7-20.95-8.13-32.74-11.67a23.4,23.4,0,0,0-8,7.06c2,11.2,2.76,22.21,6.31,32.28C1333.68,395.8,1342.93,397.87,1353.3,397.85Z" style="fill: rgb(255, 138, 101);"/><path class="cls-4" d="M1330.21,386.7c-3.55-10.07-4.29-21.08-6.31-32.28a18.91,18.91,0,0,0-1.63,2.88c-1.62,3.64-2,7.7-2.18,11.67a79.67,79.67,0,0,0,.54,15.13c.58,4,1.71,8.13,4.5,11.06,3.8,4,9.75,4.9,15.24,5.56a19.85,19.85,0,0,0,7.45,0,18,18,0,0,0,5.48-2.84C1342.93,397.87,1333.68,395.8,1330.21,386.7Z" style="fill: rgb(255, 112, 67);"/><path class="cls-4" d="M1335.65,635.51c8.29,4.46,12.92-6.52,17.78-18.44-2.17-5.78-5.91-11-11.78-13.56-8.82-4.11-18-3-26.67.16C1322.52,615.64,1326.84,630.71,1335.65,635.51Z" style="fill: rgb(255, 112, 67);"/><path class="cls-3" d="M1353.43,617.07c-4.86,11.92-9.49,22.9-17.78,18.44-8.81-4.8-13.13-19.87-20.67-31.84a89.23,89.23,0,0,0-14.06,6.87l-.37.47c-4,6.15-7.69,12.74-9.37,19.6,5.87,9.92,12.45,19.13,18.47,28.9,6,10.55,15.33,7.22,25.51.66l4.1-4.18,9.92-10.11,1-1c1.71-1.75,3.43-3.51,5-5.38a71.07,71.07,0,0,0,.53-13A39.7,39.7,0,0,0,1353.43,617.07Z" style="fill: rgb(255, 138, 101);"/><path class="cls-4" d="M1309.65,659.51c-6-9.77-12.6-19-18.47-28.9a28.42,28.42,0,0,0-.31,13,38.55,38.55,0,0,0,4.93,11.21,132,132,0,0,0,15.58,21.05,6.61,6.61,0,0,0,3,2.2c2.3.63,4.47-1.23,6.15-2.93l14.66-15C1325,666.73,1315.67,670.06,1309.65,659.51Z" style="fill: rgb(255, 112, 67);"/><path class="cls-2" d="M1300.92,610.54a89.23,89.23,0,0,1,14.06-6.87q-1.15-1.84-2.43-3.57A42.62,42.62,0,0,0,1300.92,610.54Z" style="fill: rgb(255, 171, 145);"/><path class="cls-3" d="M1354.93,605.06a30.92,30.92,0,0,0-18.41-10,33.2,33.2,0,0,0-10-.13c-.78.11-1.56.26-2.33.42a36.18,36.18,0,0,0-6,1.84,39.57,39.57,0,0,0-5.66,2.87q1.28,1.73,2.43,3.57c8.69-3.2,17.85-4.27,26.67-.16,5.87,2.61,9.61,7.78,11.78,13.56,1.22-3,2.46-6.05,3.77-8.93A26.27,26.27,0,0,0,1354.93,605.06Z" style="fill: rgb(255, 138, 101);"/><path class="cls-2" d="M1353.43,617.07a39.7,39.7,0,0,1,2.22,9.44,71.07,71.07,0,0,1-.53,13,31.3,31.3,0,0,0,3.58-5.19c.23-.44.44-.89.64-1.35,3.57-7.87,2.5-17.52-2.14-24.85C1355.89,611,1354.65,614.07,1353.43,617.07Z" style="fill: rgb(255, 171, 145);"/><path class="cls-2" d="M1356.72,585.08c2.18-6.91,1.15-14.66-2-21.2-3.39-7-9-12.64-15.39-17-3.2-2.22-6.84-4.2-10.72-4.05a11.73,11.73,0,0,0-6.76,2.64C1339.32,551.06,1349.4,567.69,1356.72,585.08Z" style="fill: rgb(255, 171, 145);"/><path class="cls-4" d="M1332.65,607.51c-16.89-12.19-10.89-35.83-16.69-54.39-.33.7-.64,1.4-.91,2.11-6.13,16.36-.84,35.26,9.36,49.45,2.53,3.52,5.84,7.09,10.16,7.42a11.17,11.17,0,0,0,7.12-2.27C1339,610.46,1336,609.92,1332.65,607.51Z" style="fill: rgb(255, 112, 67);"/><path class="cls-3" d="M1356.27,586.39h0c.16-.43.31-.87.45-1.31-7.32-17.39-17.4-34-34.9-39.65a21.28,21.28,0,0,0-5.86,7.69c5.8,18.56-.2,42.2,16.69,54.39,3.36,2.41,6.32,3,9,2.32a23.25,23.25,0,0,0,3-2.54A39.19,39.19,0,0,0,1356.27,586.39Z" style="fill: rgb(255, 138, 101);"/><path class="cls-2" d="M1257.45,402c-1.12-9.68-6.63-18.62-14.12-24.9-8-6.68-18-10.56-28.22-12.47-5.15-1-10.7-1.41-15.39.92a15.79,15.79,0,0,0-6.85,6.94C1217.44,369.78,1238.93,384.65,1257.45,402Z" style="fill: rgb(255, 171, 145);"/><path class="cls-4" d="M1240.22,442.7c-27.41-5.7-33-38-50.32-57.59,0,1,0,2.07,0,3.09,1.45,23.44,18.31,43.73,38.6,55.54,5,2.93,11.06,5.51,16.55,3.54a15,15,0,0,0,7.48-6.69C1249.6,442.84,1245.67,443.8,1240.22,442.7Z" style="fill: rgb(255, 112, 67);"/><path class="cls-3" d="M1257.62,403.83h0c0-.62-.09-1.25-.17-1.86-18.52-17.32-40-32.19-64.58-29.51a29,29,0,0,0-3,12.65c17.3,19.6,22.91,51.89,50.32,57.59,5.45,1.1,9.38.14,12.36-2.11a32.07,32.07,0,0,0,2.35-4.78C1259,425.59,1260.23,414.5,1257.62,403.83Z" style="fill: rgb(255, 138, 101);"/><path class="cls-2" d="M1270.92,592.09c-2.62-6.75-8.27-12.16-14.84-15.27-7-3.32-14.94-4.22-22.66-3.68-3.88.27-8,1-10.9,3.55a11.67,11.67,0,0,0-3.63,6.28C1236.07,576.43,1254.34,583.1,1270.92,592.09Z" style="fill: rgb(255, 171, 145);"/><path class="cls-4" d="M1266.16,624.65c-20.81,1-30.9-21.15-47-32,.17.75.37,1.5.61,2.22,5.44,16.6,21.38,28,38.21,32.74,4.18,1.16,9,1.89,12.58-.56a11.16,11.16,0,0,0,4.13-6.22C1272.94,623,1270.29,624.42,1266.16,624.65Z" style="fill: rgb(255, 112, 67);"/><path class="cls-3" d="M1271.39,593.4h0c-.15-.44-.3-.88-.47-1.31-16.58-9-34.85-15.66-52-9.12a21.36,21.36,0,0,0,.24,9.66c16.13,10.87,26.22,33.06,47,32,4.13-.23,6.78-1.66,8.5-3.84a23.84,23.84,0,0,0,.79-3.88A39.19,39.19,0,0,0,1271.39,593.4Z" style="fill: rgb(255, 138, 101);"/><path class="cls-2" d="M688.83,40.56c-3.47-8.93-10.93-16.07-19.61-20.18C660,16,649.48,14.81,639.29,15.52c-5.13.36-10.53,1.31-14.4,4.69a15.46,15.46,0,0,0-4.8,8.3C642.79,19.86,666.92,28.68,688.83,40.56Z" style="fill: rgb(255, 171, 145);"/><path class="cls-4" d="M682.53,83.57c-27.48,1.37-40.82-27.94-62.13-42.3.24,1,.5,2,.81,2.93,7.19,21.93,28.25,37.05,50.49,43.25,5.52,1.54,11.88,2.5,16.61-.73a14.75,14.75,0,0,0,5.45-8.22C691.49,81.38,688,83.27,682.53,83.57Z" style="fill: rgb(255, 112, 67);"/><path class="cls-3" d="M689.44,42.29h0c-.18-.58-.39-1.16-.61-1.73-21.91-11.88-46-20.7-68.74-12a28.42,28.42,0,0,0,.31,12.76c21.31,14.36,34.65,43.67,62.13,42.3,5.46-.3,9-2.19,11.23-5.07a30.53,30.53,0,0,0,1-5.13C696.13,62.65,694.58,51.79,689.44,42.29Z" style="fill: rgb(255, 138, 101);"/><path class="cls-4" d="M299,748s-48.35,24.42-63.17,71.71S240,907.5,286.5,905s60.5-34.5,70-69.5S356,718.57,299,748Z" style="fill: rgb(255, 112, 67);"/><path class="cls-2" d="M345,745c-10.67-50.67-43-36.7-61.82-30-16.5,5.88-36.11,14.71-56,73.52,13-20.35,21.64-44.35,43.86-57.52,18-10,50-21,62,2,6.48,13,9,29.69,12.75,45.55A97.21,97.21,0,0,0,345,745Z" style="fill: rgb(255, 171, 145);"/><path class="cls-3" d="M333,733c-12-23-44-12-62-2-22.22,13.17-30.9,37.17-43.86,57.52-.72,2.1-1.43,4.25-2.14,6.48a129.12,129.12,0,0,0-3.86,14.94A11.61,11.61,0,0,1,223,813c9,14,12,34,30,38a118.44,118.44,0,0,0,58-1.52c17-16.75,30.83-43.6,34.73-70.93C342,762.69,339.48,746,333,733Z" style="fill: rgb(255, 138, 101);"/><path class="cls-4" d="M253,851c-18-4-21-24-30-38a11.61,11.61,0,0,0-1.86-3.06c-9.95,51.73,28,62.22,61.11,56.24,9.83-1.77,19.75-7.82,28.77-16.7A118.44,118.44,0,0,1,253,851Z" style="fill: rgb(255, 112, 67);"/><path class="cls-3" d="M248.76,233.61S217,253.92,223,296.46s21.42,65.5,54.05,69,33-50.89,29.12-69S312.53,233.61,248.76,233.61Z" style="fill: rgb(255, 138, 101);"/><path class="cls-3" d="M252.66,282.5c12.5,10.28,29.25,11.64,45.77,7.36.75-.34,1.51-.68,2.25-1,6.33-3,12.63-6.46,17.32-11.67a34.59,34.59,0,0,0,5.8-9.09c5.41-22.18,5.26-45.09-11.29-60.72-12.77-13.94-34.28-10.43-54.8-11.32a10.34,10.34,0,0,1-3.63,2.85,42.07,42.07,0,0,0-8.7,5.69c-3.46,3.18-5.74,7.42-7.64,11.74C240.66,241.16,234.12,268.59,252.66,282.5Z" style="fill: rgb(255, 138, 101);"/><path class="cls-4" d="M252.66,282.5c-18.54-13.91-12-41.34-14.92-66.2l-.4.9c-10.8,25.23-12.43,55.63,1.34,79.36,2,3.38,4.38,6.73,7.9,8.43,5.54,2.68,12.1.58,17.88-1.55,11.45-4.21,22.91-8.44,34-13.58C281.91,294.14,265.16,292.78,252.66,282.5Z" style="fill: rgb(255, 112, 67);"/><path class="cls-2" d="M312.51,207.34c16.55,15.63,16.7,38.54,11.29,60.72,3.69-8.28,4.7-18,5.08-27.17.38-9,.33-18.3-2.62-26.86s-9.28-16.4-17.95-19c-6.89-2.07-14.32-.66-21.45-1.6-4.35-.57-8.55-2-12.9-2.63s-9.09-.27-12.61,2.36a10.41,10.41,0,0,0-3.64,2.86C278.23,196.91,299.74,193.4,312.51,207.34Z" style="fill: rgb(255, 171, 145);"/><path class="cls-3" d="M364,256.5s-23.51,15.75-8,43.13S376.36,343,396.43,333.5s6.07-48.08-3.93-60.79S377.53,250,364,256.5Z" style="fill: rgb(255, 138, 101);"/><path class="cls-4" d="M391,281c-28-8-27-37-31-62a77,77,0,0,0-2.05-9.94,52,52,0,0,0-.73,6.93s-7.06,14.23-5,37.45c.71,8,9.46,12.62,14.86,18.54,2.53,2.77,4.74,5.87,7.58,8.32a23.54,23.54,0,0,0,15.69,5.64c5.08-.1,10-1.86,15-2.59,3.9-.56,8.05-.55,11.46-2.54,4.22-2.45,6.1-7.13,8.15-11.71C413.87,275.18,404.78,284.83,391,281Z" style="fill: rgb(255, 112, 67);"/><path class="cls-3" d="M436.17,253.85c.13-12.42-1.59-24.57-8.17-35.85-9-13-26-13-41-17a29.18,29.18,0,0,1-11.37-5.88,54.35,54.35,0,0,0-7.53.61,11.61,11.61,0,0,0-5.81,2.21c-1.78,1.51-2.62,3.84-3.24,6.09-.45,1.66-.81,3.34-1.1,5A77,77,0,0,1,360,219c4,25,3,54,31,62,13.78,3.83,22.87-5.82,34-11.9a44.67,44.67,0,0,1,2.7-5.3C430,260.14,433.33,257.12,436.17,253.85Z" style="fill: rgb(255, 138, 101);"/><path class="cls-2" d="M428,218c6.58,11.28,8.3,23.43,8.17,35.85a22.35,22.35,0,0,0,4.84-7.93c1.06-3.37.89-7,.53-10.52a109.4,109.4,0,0,0-6.32-27.12,18.6,18.6,0,0,0-2.35-4.72c-2.2-2.91-5.81-4.39-9.35-5.24-8-1.93-16.32-1.35-24.53-1.72-7.78-.36-15.61-1.59-23.36-1.48A29.18,29.18,0,0,0,387,201C402,205,419,205,428,218Z" style="fill: rgb(255, 171, 145);"/><path class="cls-3" d="M1133.57,100c-7.06,4.23-10.57,12-11.34,20.67,0,.42.07.84.11,1.26.37,3.54.94,7.15,2.64,10.28a17.59,17.59,0,0,0,3.36,4.34c9.7,6.37,20.71,10.21,31,4.95,8.86-3.74,10.85-14.64,14.78-24.32a5.23,5.23,0,0,1-.75-2.22,21.51,21.51,0,0,0-1.24-5.15,17.47,17.47,0,0,0-4.32-5.66C1155.42,101.34,1143.4,93.52,1133.57,100Z" style="fill: rgb(255, 138, 101);"/><path class="cls-4" d="M1133.57,100c9.83-6.51,21.85,1.31,34.26,4.15l-.37-.34c-10.23-9.49-24.52-15.46-38.24-12.91a10.22,10.22,0,0,0-5.39,2.34c-2.23,2.2-2.34,5.7-2.31,8.83.06,6.21.14,12.42.71,18.6C1123,112.06,1126.51,104.26,1133.57,100Z" style="fill: rgb(255, 112, 67);"/><path class="cls-2" d="M1159.36,141.53c-10.31,5.26-21.32,1.42-31-4.95,3.34,3.18,7.8,5.31,12.15,7.07s8.71,3.28,13.31,3.33,9.45-1.65,12.17-5.36c2.17-3,2.76-6.75,4.43-10,1-2,2.43-3.75,3.46-5.73a8.71,8.71,0,0,0,1-6.45,5.37,5.37,0,0,0-.75-2.23C1170.21,126.89,1168.22,137.79,1159.36,141.53Z" style="fill: rgb(255, 171, 145);"/><path class="cls-3" d="M1167.36,105.12c10,8.26,23.49,9.35,36.76,5.92l1.81-.84c5.08-2.43,10.14-5.19,13.91-9.38a27.7,27.7,0,0,0,4.66-7.3c4.34-17.82,4.22-36.22-9.07-48.78-10.26-11.19-27.54-8.37-44-9.09a8.33,8.33,0,0,1-2.92,2.3,33.49,33.49,0,0,0-7,4.56c-2.78,2.56-4.6,6-6.13,9.43C1157.71,71.91,1152.46,93.94,1167.36,105.12Z" style="fill: rgb(255, 138, 101);"/><path class="cls-4" d="M1167.36,105.12c-14.9-11.18-9.65-33.21-12-53.18-.11.25-.22.49-.32.73-8.68,20.26-10,44.68,1.07,63.74,1.58,2.72,3.52,5.41,6.34,6.78,4.46,2.15,9.73.46,14.37-1.25,9.19-3.38,18.4-6.78,27.29-10.9C1190.85,114.47,1177.39,113.38,1167.36,105.12Z" style="fill: rgb(255, 112, 67);"/><path class="cls-2" d="M1215.43,44.74c13.29,12.56,13.41,31,9.07,48.78,3-6.65,3.77-14.42,4.08-21.82s.26-14.7-2.11-21.58S1219,37,1212.05,34.86c-5.53-1.66-11.5-.53-17.22-1.29-3.5-.46-6.87-1.62-10.37-2.11s-7.3-.22-10.13,1.89a8.45,8.45,0,0,0-2.92,2.3C1187.89,36.37,1205.17,33.55,1215.43,44.74Z" style="fill: rgb(255, 171, 145);"/><path class="cls-2" d="M68.26,42.84c-3.68-4-8.83-6.2-13.84-8.23a67.27,67.27,0,0,0-11.83-3.93,72,72,0,0,0-13.69-1l-17.39-.16A65,65,0,0,0,0,30.12v8.5c15.66,4.18,33.76.19,49.59,4.72,2,0,5,2,7,4,5.28,10.55,4,23.17,6.12,34.42a64,64,0,0,1,3.37-7.34c2.63-4.92,6-9.65,7-15.13A19.43,19.43,0,0,0,68.26,42.84Z" style="fill: rgb(255, 171, 145);"/><path class="cls-4" d="M1.59,92.34Q.78,91.65,0,90.9V112a37.2,37.2,0,0,0,13.27,2.4c5.6-.19,11-2.25,16.54-2.85,5.06-.55,10.29.1,15.19-1.28a19.12,19.12,0,0,0,11.23-8.74c.14-.25.26-.5.39-.74C36.32,102.65,16.45,104,1.59,92.34Z" style="fill: rgb(255, 112, 67);"/><path class="cls-3" d="M56.59,47.34c-2-2-5-4-7-4C33.76,38.81,15.66,42.8,0,38.62V90.9q.78.75,1.59,1.44c14.86,11.63,34.73,10.31,55,8.47,2-3.79,2.73-8.1,3.84-12.24a65.37,65.37,0,0,1,2.25-6.81C60.62,70.51,61.87,57.89,56.59,47.34Z" style="fill: rgb(255, 138, 101);"/><path class="cls-2" d="M266.84,10.48a29.9,29.9,0,0,0-5.27-3.88,29,29,0,0,0-6.64-2.28l-8.6-2.19a22,22,0,0,0-6.84-1,12.35,12.35,0,0,0-4.73,1.29c7.06,8.93,19.54,7.11,28.36,12.94,1,.24,2.17,1.85,2.86,3.35,1,7.24-1.53,15-2.2,22.28a48.28,48.28,0,0,1,2.78-4.19c2.06-2.76,4.42-5.32,5.75-8.63a14.85,14.85,0,0,0,.14-10.87C271.23,14.37,269,12.36,266.84,10.48Z" style="fill: rgb(255, 171, 145);"/><path class="cls-4" d="M231.86,40.24c-4.19-7.28-4.08-20.63-3.3-32.52,0,0,0,0,0,0a22.1,22.1,0,0,0-4,14c-.35,5.66-4.08,8.94-4.44,14.6a22,22,0,0,0,.32,7.09c.87,3.12,3.11,5.17,5.28,7,2.61,2.2,5.35,4.36,8.57,5,2.81.56,5.79-.08,8.64.21,2.59.27,5.09,1.3,7.73,1a10.45,10.45,0,0,0,6.9-4.12l.3-.41C247.51,50.89,237.46,49.31,231.86,40.24Z" style="fill: rgb(255, 112, 67);"/><path class="cls-3" d="M263.78,41c.67-7.3,3.21-15,2.2-22.28-.69-1.5-1.87-3.11-2.86-3.35-8.82-5.83-21.3-4-28.36-12.94a17,17,0,0,0-6.2,5.3c-.78,11.89-.89,25.24,3.3,32.52,5.6,9.07,15.65,10.65,26,11.94a45.87,45.87,0,0,0,3.77-7.2Q262.62,42.93,263.78,41Z" style="fill: rgb(255, 138, 101);"/><path class="cls-4" d="M29.27,10.21l-.32.07a4.89,4.89,0,0,0-1.87.72,4,4,0,0,0-1.27,2.05,18.19,18.19,0,0,0-.6,5.16q-.09,6.42.11,12.83a6.3,6.3,0,0,0,1,3.88,5.34,5.34,0,0,0,2.54,1.5,18.39,18.39,0,0,0,13.19-.78,20.07,20.07,0,0,1-8.83-2.75C25.05,28.35,31.7,18.05,29.27,10.21Z" style="fill: rgb(255, 112, 67);"/><path class="cls-3" d="M47.33,31.67a8,8,0,0,0,.92-1.82C44.56,21.08,43.14,13.06,34.52,9.1c-1.71.3-3.39.69-5.25,1.11,2.43,7.84-4.22,18.14,3.95,22.68a20.07,20.07,0,0,0,8.83,2.75,17.53,17.53,0,0,0,1.83-.94A10.59,10.59,0,0,0,47.33,31.67Z" style="fill: rgb(255, 138, 101);"/><path class="cls-2" d="M48.25,29.85a19.32,19.32,0,0,0,.81-6.13c.08-3.53.1-7.21-1.42-10.4s-5.1-5.68-8.52-4.79a41.89,41.89,0,0,0-4.6.57C43.14,13.06,44.56,21.08,48.25,29.85Z" style="fill: rgb(255, 171, 145);"/><path class="cls-2" d="M104.12,62c-1.91-.18-3.83-.28-5.74-.34l-1.58.23Z" style="fill: rgb(255, 171, 145);"/><path class="cls-2" d="M112.54,78.43c2.63,8.53-2.07,19.21-1.09,27.81a34.78,34.78,0,0,0,7.26-13.55c1.27-4.9,1.26-10,1.24-15.07,0-3.69-.08-7.6-2-10.72s-5.85-5.08-9.65-5.62a34.86,34.86,0,0,0-9.88.36c1.91.06,3.83.16,5.74.34l-7.32-.11,1.58-.23a101.66,101.66,0,0,0-13.06.4,17.66,17.66,0,0,0-5.2,1.08,10.62,10.62,0,0,0-1.49.79C90.44,71.1,109,63.32,112.54,78.43Z" style="fill: rgb(255, 171, 145);"/><path class="cls-4" d="M75.54,97.43c-7-9,2-17-1-26a12.6,12.6,0,0,1-.37-3.35,56.59,56.59,0,0,0-6.54,11.2c-1.76,3.64-3.52,7.53-3.16,11.56.44,5,4.1,9.19,7.78,12.68a122.87,122.87,0,0,0,12.58,10.42c2.24,1.61,4.63,3.18,7.35,3.62,3.27.52,6.47-.67,9.34-2.46C91.36,112.86,82.31,106.67,75.54,97.43Z" style="fill: rgb(255, 112, 67);"/><path class="cls-3" d="M111.45,106.24c-1-8.6,3.72-19.28,1.09-27.81C109,63.32,90.44,71.1,78.63,63.91a16.27,16.27,0,0,0-3.37,2.89c-.38.41-.74.84-1.09,1.28a12.6,12.6,0,0,0,.37,3.35c3,9-6,17,1,26,6.77,9.24,15.82,15.43,26,17.67a33.37,33.37,0,0,0,3.18-2.29A48.17,48.17,0,0,0,111.45,106.24Z" style="fill: rgb(255, 138, 101);"/><path class="cls-2" d="M184.8,51.29a14,14,0,0,0-1.35-5.77c-1.54-2.79-4.61-4.32-7.57-5.53a29.71,29.71,0,0,0-10.83-2.65c-3.66,0-7.37.22-9.78,2.93,8.74,3.14,19.79.72,23.27,11.16,1.89,7.58-3.38,16.05-.55,23.72l1.48-2.71c2.07-3.81,4.16-7.69,5-11.94A34.21,34.21,0,0,0,184.8,51.29Z" style="fill: rgb(255, 171, 145);"/><path class="cls-3" d="M178,75.15c-2.83-7.67,2.44-16.14.55-23.72-3.48-10.44-14.53-8-23.27-11.16l-.15.16c-4.59,1.55-4.77,2.13-8.82,3.56-1.05,13.32-5,27,.24,38.44,3.93,10.21,14,9.93,23.49,5.47.33-.43.66-.86,1-1.3A112.1,112.1,0,0,0,178,75.15Z" style="fill: rgb(255, 138, 101);"/><path class="cls-4" d="M146.54,82.43C141.28,71,145.25,57.31,146.3,44l-.86.29A11.32,11.32,0,0,0,141.87,46c-2.32,1.89-2.74,5.22-2.93,8.21q-.93,14.46-.43,29a7.12,7.12,0,0,0,.53,3c.7,1.42,2.2,2.22,3.62,2.92l13.91,7c1.32.66,2.77,1.34,4.22,1a6.31,6.31,0,0,0,3-2A66.14,66.14,0,0,0,170,87.9C160.55,92.36,150.47,92.64,146.54,82.43Z" style="fill: rgb(255, 112, 67);"/><path class="cls-3" d="M109,13.55a17.61,17.61,0,0,0-4.32-5.66C92.3,5.05,80.28-2.77,70.45,3.74,63.39,8,59.87,15.76,59.1,24.41l.12,1.25c.37,3.55.94,7.16,2.64,10.29a17.35,17.35,0,0,0,3.36,4.33c9.7,6.38,20.71,10.22,31,5C105.1,41.5,107.09,30.6,111,20.92a5.41,5.41,0,0,1-.74-2.23A21.55,21.55,0,0,0,109,13.55Z" style="fill: rgb(255, 138, 101);"/><path class="cls-4" d="M95.86,1.1H58.7a24,24,0,0,0-.3,4.71c.06,6.21.14,12.42.7,18.6C59.87,15.76,63.39,8,70.45,3.74c9.83-6.51,21.85,1.31,34.26,4.15l-.37-.34A54.63,54.63,0,0,0,95.86,1.1Z" style="fill: rgb(255, 112, 67);"/><path class="cls-2" d="M96.24,45.24c-10.31,5.26-21.32,1.42-31-5,3.34,3.18,7.8,5.32,12.15,7.08s8.71,3.28,13.31,3.33,9.45-1.65,12.17-5.36c2.17-2.95,2.76-6.75,4.43-10,1-2,2.43-3.75,3.46-5.73a8.71,8.71,0,0,0,1-6.45,5.2,5.2,0,0,0-.76-2.23C107.09,30.6,105.1,41.5,96.24,45.24Z" style="fill: rgb(255, 171, 145);"/><path class="cls-3" d="M106.77,1.1c1,8.49,3.61,15.94,10.47,21.09,10,8.26,23.5,9.35,36.77,5.92l1.8-.84c5.08-2.43,10.15-5.19,13.91-9.38a27.7,27.7,0,0,0,4.66-7.3,96.21,96.21,0,0,0,1.84-9.49Z" style="fill: rgb(255, 138, 101);"/><path class="cls-4" d="M117.24,22.19C110.38,17,107.8,9.59,106.77,1.1H98.08c-.17,11.35,2.24,22.57,7.93,32.38,1.58,2.72,3.51,5.41,6.34,6.78,4.45,2.15,9.72.46,14.36-1.25,9.2-3.38,18.41-6.78,27.3-10.9C140.74,31.54,127.27,30.45,117.24,22.19Z" style="fill: rgb(255, 112, 67);"/><path class="cls-2" d="M177.2,1.1h-1a96.21,96.21,0,0,1-1.84,9.49A42,42,0,0,0,177.2,1.1Z" style="fill: rgb(255, 171, 145);"/><path class="cls-3" d="M1310.32,512.08c13,10.73,30.51,12.15,47.75,7.68.78-.36,1.56-.71,2.34-1.09,6.6-3.15,13.18-6.74,18.07-12.17a35.67,35.67,0,0,0,6-9.49c5.65-23.14,5.49-47-11.77-63.34-13.33-14.55-35.77-10.89-57.18-11.81a10.86,10.86,0,0,1-3.78,3,43.61,43.61,0,0,0-9.09,5.93c-3.6,3.32-6,7.74-8,12.24C1297.8,469,1291,497.56,1310.32,512.08Z" style="fill: rgb(255, 138, 101);"/><path class="cls-4" d="M1310.32,512.08C1291,497.56,1297.8,469,1294.75,443c-.14.32-.28.63-.41.95-11.28,26.31-13,58,1.39,82.78,2,3.53,4.56,7,8.24,8.81,5.78,2.79,12.62.6,18.65-1.62,11.94-4.4,23.9-8.81,35.45-14.17C1340.83,524.23,1323.35,522.81,1310.32,512.08Z" style="fill: rgb(255, 112, 67);"/><path class="cls-2" d="M1372.76,433.67c17.26,16.3,17.42,40.2,11.77,63.34,3.85-8.63,4.9-18.73,5.3-28.34.39-9.43.35-19.09-2.73-28s-9.69-17.11-18.73-19.82c-7.19-2.16-14.94-.69-22.37-1.67-4.55-.6-8.93-2.11-13.46-2.75s-9.49-.28-13.16,2.46a11,11,0,0,0-3.8,3C1337,422.78,1359.43,419.12,1372.76,433.67Z" style="fill: rgb(255, 171, 145);"/><path class="cls-2" d="M1305.62,441.41c2.18-6.91,1.15-14.66-2-21.2-3.38-7-9-12.63-15.38-17-3.2-2.21-6.84-4.2-10.73-4a11.66,11.66,0,0,0-6.76,2.63C1288.22,407.4,1298.3,424,1305.62,441.41Z" style="fill: rgb(255, 171, 145);"/><path class="cls-4" d="M1281.55,463.84c-16.88-12.19-10.89-35.82-16.69-54.39-.33.7-.64,1.41-.9,2.11-6.14,16.36-.85,35.26,9.35,49.45,2.54,3.52,5.84,7.09,10.16,7.43a11.18,11.18,0,0,0,7.12-2.28C1287.88,466.79,1284.92,466.25,1281.55,463.84Z" style="fill: rgb(255, 112, 67);"/><path class="cls-3" d="M1305.17,442.73h0c.16-.44.32-.88.45-1.32-7.32-17.39-17.4-34-34.9-39.65a21.48,21.48,0,0,0-5.86,7.69c5.8,18.57-.19,42.2,16.69,54.39,3.37,2.41,6.33,3,9,2.32a23.18,23.18,0,0,0,3-2.53A39.16,39.16,0,0,0,1305.17,442.73Z" style="fill: rgb(255, 138, 101);"/><path class="cls-3" d="M1324.35,344.06c3.75,3.1,8.79,3.5,13.75,2.22l.68-.32a16.1,16.1,0,0,0,5.2-3.5,10.3,10.3,0,0,0,1.75-2.74c1.62-6.66,1.58-13.55-3.4-18.25-3.84-4.19-10.3-3.13-16.47-3.4a3,3,0,0,1-1.09.86,12.31,12.31,0,0,0-2.62,1.71,10.2,10.2,0,0,0-2.29,3.53C1320.74,331.64,1318.77,339.88,1324.35,344.06Z" style="fill: rgb(255, 138, 101);"/><path class="cls-4" d="M1324.35,344.06c-5.58-4.18-3.61-12.42-4.49-19.89l-.12.27c-3.25,7.58-3.74,16.72.4,23.85a6,6,0,0,0,2.38,2.54c1.66.8,3.63.17,5.37-.47,3.44-1.27,6.89-2.54,10.21-4.08C1333.14,347.56,1328.1,347.16,1324.35,344.06Z" style="fill: rgb(255, 112, 67);"/><path class="cls-2" d="M1342.33,321.47c5,4.7,5,11.59,3.4,18.25a22.36,22.36,0,0,0,1.52-8.16,22,22,0,0,0-.78-8.08,8.77,8.77,0,0,0-5.4-5.71c-2.07-.62-4.3-.2-6.45-.48-1.3-.17-2.57-.61-3.87-.79a5.14,5.14,0,0,0-3.79.71,3.18,3.18,0,0,0-1.1.86C1332,318.34,1338.49,317.28,1342.33,321.47Z" style="fill: rgb(255, 171, 145);"/><path class="cls-2" d="M845.71,794.51c8.55,11.7,11.38,27.61,17,41a95.38,95.38,0,0,1,1-9.93c1-6.75,2.73-13.43,1.95-20.47-.82-7.47-4.63-14.76-9.95-19.11-4.88-4-10.63-5.41-16.2-6.65a58.07,58.07,0,0,0-12.84-1.84c-4.69,0-9.22,1.13-13.72,2.24L795.86,784c-4.45,1.1-8.94,2.22-12.9,4.66a25.16,25.16,0,0,0-7.05,6.7c20.71,9,40.8-5.9,61.66-4C839.53,790.84,843.11,792.55,845.71,794.51Z" style="fill: rgb(255, 171, 145);"/><path class="cls-4" d="M806.3,864.11c-14.14-8.8-26.47-32.21-36.24-53.72,0,0,0,.06,0,.08a43.82,43.82,0,0,0,6.2,28.22c4.69,10.22,1.24,19.45,5.92,29.67,2,4.35,4.08,8.82,7.21,12.09,4.43,4.62,10.27,6.11,15.78,7.28,6.62,1.39,13.44,2.59,19.67.69,5.41-1.66,10-5.57,15.27-7.73,4.78-2,10.11-2.49,14.46-5.44,4.16-2.82,7.17-7.83,8.19-13.66.06-.33.1-.67.14-1C843.62,868,824.58,874.7,806.3,864.11Z" style="fill: rgb(255, 112, 67);"/><path class="cls-3" d="M862.74,835.5c-5.65-13.38-8.48-29.29-17-41-2.6-2-6.18-3.67-8.14-3.16-20.86-1.92-41,13-61.66,4a33.72,33.72,0,0,0-5.85,15.06c9.77,21.51,22.1,44.92,36.24,53.72,18.28,10.59,37.32,3.91,56.59-3.53.72-5.18.08-10.7-.16-16.1C862.6,841.47,862.61,838.47,862.74,835.5Z" style="fill: rgb(255, 138, 101);"/><path class="cls-3" d="M916.13,940.48c8.81,1.76,17.35-2,24.31-8.4l.82-1.1c2.3-3.14,4.48-6.47,5.41-10.25a19.39,19.39,0,0,0,.45-6C944,902.5,937.86,891.34,925.67,888c-9.9-3.46-19.49,3.89-29.76,8.84a5.76,5.76,0,0,1-1,2.35,23.29,23.29,0,0,0-2.77,5.06,19.22,19.22,0,0,0-.65,7.74C899.42,923.42,903.41,938.55,916.13,940.48Z" style="fill: rgb(255, 138, 101);"/><path class="cls-4" d="M916.13,940.48c-12.72-1.93-16.71-17.06-24.66-28.45,0,.19,0,.37,0,.55C892.84,927.75,900,943,913,951a11.07,11.07,0,0,0,6.08,2.06c3.41-.15,6.06-2.89,8.33-5.45,4.49-5.06,9-10.14,13.05-15.55C933.48,938.51,924.94,942.24,916.13,940.48Z" style="fill: rgb(255, 112, 67);"/><path class="cls-2" d="M925.67,888c12.19,3.3,18.28,14.46,21.45,26.72-.37-5-2.41-10-4.64-14.61s-4.64-9-8.33-12.44-8.84-5.59-13.76-4.58c-3.91.79-7.17,3.43-10.91,4.84-2.27.86-4.71,1.25-7,2.1s-4.52,2.25-5.55,4.46a5.82,5.82,0,0,0-1,2.35C906.18,891.93,915.77,884.58,925.67,888Z" style="fill: rgb(255, 171, 145);"/><path class="cls-4" d="M720.41,930.72l-1.26,4.09c-1.4,4.51-2.82,9.17-2.3,13.87.6,5.52,3.79,10.37,6.89,15l11,16.34H762C743.82,971.69,733.69,947.86,720.41,930.72Z" style="fill: rgb(255, 112, 67);"/><path class="cls-3" d="M856.54,951.91a39,39,0,0,0,3.37-11.23,36.89,36.89,0,0,0,.25-7.57,40.25,40.25,0,0,0-15.09-16.65c-11.37-6.39-25.6-3.29-36.09-10.15-11-7.74-18.11-23.19-30.17-22.39-16.39.13-32,7.8-47.78,14.87a45.19,45.19,0,0,0-3.47,8.89q-3.57,11.52-7.15,23c13.28,17.14,23.41,41,41.57,49.28H836.3c4.81-5.63,9.34-11.52,13.65-17.52A71,71,0,0,0,856.54,951.91Z" style="fill: rgb(255, 138, 101);"/><path class="cls-2" d="M837.82,899.61c-4.61-2.27-9.62-3.66-14.19-6-12.47-6.41-20.43-19.2-32.18-26.84a13.24,13.24,0,0,0-5.27-2.28,15,15,0,0,0-4.17.2c-7.71,1.07-23,9.08-27.85,15.2L743,887.53c-4.18,2.86-8.46,5.83-11.23,10.06-.26.39-.51.79-.74,1.2,15.74-7.07,31.39-14.74,47.78-14.87,12.06-.8,19.21,14.65,30.17,22.39,10.49,6.86,24.72,3.76,36.09,10.15a40.25,40.25,0,0,1,15.09,16.65A41.33,41.33,0,0,0,837.82,899.61Z" style="fill: rgb(255, 171, 145);"/><path class="cls-4" d="M930.38,817.32c-2.16-1.16-4.15-7.8-6.89-7.89-29.6-.22-33.85-32.11-45-54.73L876.71,758c-2,3.59-4,7.3-4.36,11.38-.44,4.8,1.43,9.47,3.27,13.93L889.09,816a13.18,13.18,0,0,0,2.77,4.7c2.36,2.22,5.9,2.36,9.09,2.88,8.93,1.47,16.72,6.68,25.15,10a20.09,20.09,0,0,0,8.11,1.72A21.62,21.62,0,0,0,942,833a126.06,126.06,0,0,0,24.27-14.67A53.71,53.71,0,0,1,930.38,817.32Z" style="fill: rgb(255, 112, 67);"/><path class="cls-3" d="M990.45,796.3a33.67,33.67,0,0,0,4.82-8.95,31.44,31.44,0,0,0,1.52-6.39,34.94,34.94,0,0,0-9.93-16.76c-8.55-7.4-21.17-7.24-28.89-14.88-8-8.47-11.37-22.84-21.75-24.25-13.94-2.74-28.56,1.06-43.16,4.34a38.94,38.94,0,0,0-4.49,7L878.5,754.7c11.14,22.62,15.39,54.51,45,54.73,2.74.09,4.73,6.73,6.89,7.89a53.71,53.71,0,0,0,35.87,1A218.18,218.18,0,0,0,983,804.13,59.7,59.7,0,0,0,990.45,796.3Z" style="fill: rgb(255, 138, 101);"/><path class="cls-2" d="M983.63,748.63c-3.53-2.73-7.54-4.78-11-7.57-9.47-7.6-14-19.85-22.68-28.38a11.42,11.42,0,0,0-4.08-2.85,13,13,0,0,0-3.57-.55c-6.74-.43-21.14,3.72-26.29,8.08l-10.82,4.57c-4,1.7-8.19,3.48-11.28,6.59-.29.29-.57.59-.83.89,14.6-3.28,29.22-7.08,43.16-4.34C946.6,726.48,950,740.85,958,749.32c7.72,7.64,20.34,7.48,28.89,14.88A34.94,34.94,0,0,1,996.79,781,35.81,35.81,0,0,0,983.63,748.63Z" style="fill: rgb(255, 171, 145);"/><path class="cls-4" d="M691.55,939c-12.27,2.41-14.84-12.83-22.63-21a42,42,0,0,0,.11,5.61,34.86,34.86,0,0,0,10.37,21.59,12.25,12.25,0,0,0,5.7,3.5,14.92,14.92,0,0,0,5.16-.13c4.71-.67,9.83-1.56,13-5.12a41.22,41.22,0,0,1,2.79-3.37c2.18-2,5.33-2.31,8.06-3.41a17.8,17.8,0,0,0,8.49-7.78C713.91,934.69,701.29,937.31,691.55,939Z" style="fill: rgb(255, 112, 67);"/><path class="cls-3" d="M725.22,909.34a27.49,27.49,0,0,0-2.69-7.12c-3.44,13.91-7.11,28.94-20.67,22.16-10.13-5.69-21-12.78-31-19.73-.13.38-.25.76-.36,1.15,0,.05,0,.11,0,.17a46.14,46.14,0,0,0-1,5.85c-.24,2-.44,4.1-.52,6.16,7.79,8.18,10.36,23.42,22.63,21,9.74-1.68,22.36-4.3,31-10.12a21.28,21.28,0,0,0,1.29-2.57A27.82,27.82,0,0,0,725.22,909.34Z" style="fill: rgb(255, 138, 101);"/><path class="cls-2" d="M722.53,902.22a24.29,24.29,0,0,0-7.43-8.43,20.57,20.57,0,0,0-15.63-3.36,34.3,34.3,0,0,1-6.85.68h-2.74a20,20,0,0,0-19,13.53c10,7,20.88,14,31,19.73C715.42,931.16,719.09,916.13,722.53,902.22Z" style="fill: rgb(255, 171, 145);"/><path class="cls-4" d="M869.59,867c-6-6.89-6.45-16.25-9.66-24a27.77,27.77,0,0,0-3.68,6.23c-2.09,5.24-1.58,11.23.3,16.55,2.76,7.81,8.28,14.4,14.67,19.67s13.68,9.32,20.91,13.35a16,16,0,0,0,5,2.09c2.61.42,5.24-.47,7.67-1.49a66.52,66.52,0,0,0,23-16.14c-9,4-18.31,6.07-28.58,3A53.17,53.17,0,0,1,869.59,867Z" style="fill: rgb(255, 112, 67);"/><path class="cls-3" d="M929.42,847.36c-8.79-10-21.85-13.24-33.7-20.5-5.71-3.67-12.78-.69-20.07.19a83.14,83.14,0,0,0-15.29,15.39l-.43.59c3.21,7.7,3.63,17.06,9.66,24a53.17,53.17,0,0,0,29.64,19.28c10.27,3.1,19.6,1,28.58-3a66.39,66.39,0,0,0,12.42-19A49.46,49.46,0,0,0,929.42,847.36Z" style="fill: rgb(255, 138, 101);"/><path class="cls-2" d="M895.72,826.86c11.85,7.26,24.91,10.46,33.7,20.5a49.46,49.46,0,0,1,10.81,16.91c0-.09.08-.17.11-.25a23.6,23.6,0,0,0,2.3-9.71c-.12-5-2.9-9.7-6.44-13.29s-7.84-6.32-11.91-9.29c-5-3.68-9.78-7.79-15.3-10.66-4.77-2.48-10.32-4-15.56-3.08a2,2,0,0,1,.49.34l-2.94.25a17.81,17.81,0,0,1,2.45-.59c-1.29-.67-3-.06-4.43.64a82,82,0,0,0-13.35,8.42C882.94,826.17,890,823.19,895.72,826.86Z" style="fill: rgb(255, 171, 145);"/><path class="cls-2" d="M1001.33,879.24a5.94,5.94,0,0,0-2-.6,18.71,18.71,0,0,0-3.33.92Z" style="fill: rgb(255, 171, 145);"/><path class="cls-2" d="M1018.53,860.22c-5.72-5.53-14.06-8.86-21.75-7.46-3-.38-6.25,1.25-9,2.87-7.5,4.41-15,9-21,15.38a39.41,39.41,0,0,0-4.44,5.74c16.14-3.28,31.36-10.8,46-7,12.25,3.12,15.42,18.64,22.05,31.33A23.47,23.47,0,0,0,1033,894c.47-3.38-.44-6.78-1.46-10C1028.79,875.28,1025.1,866.56,1018.53,860.22Z" style="fill: rgb(255, 171, 145);"/><path class="cls-3" d="M1019.55,922.7l.51-1q5-10,10-19.95l.3-.6c-6.63-12.69-9.8-28.21-22.05-31.33-14.59-3.85-29.81,3.67-46,7a31.25,31.25,0,0,0-4.93,13.36c9.45,11.92,17.29,24.43,27.84,34C995.14,932.69,1007.34,929.27,1019.55,922.7Z" style="fill: rgb(255, 138, 101);"/><path class="cls-4" d="M985.3,924.15c-10.55-9.61-18.39-22.12-27.84-34a24.24,24.24,0,0,0-.1,4.43c.38,5.31,2.51,10.33,4.81,15.13a106.63,106.63,0,0,0,10.19,17.48c3.22,4.34,7.16,8.49,12.29,10.19,7,2.31,14.6-.4,21.48-3.08,3.11-1.21,6.31-2.48,8.76-4.76a23.76,23.76,0,0,0,4.66-6.8C1007.34,929.27,995.14,932.69,985.3,924.15Z" style="fill: rgb(255, 112, 67);"/><path class="cls-2" d="M1048.2,843c-4.28-4.13-10.52-6.63-16.27-5.58-2.25-.28-4.67.94-6.73,2.15-5.6,3.3-11.25,6.73-15.67,11.5a30.87,30.87,0,0,0-3.32,4.29c12.07-2.45,23.46-8.08,34.37-5.19,9.16,2.33,11.53,13.94,16.48,23.43a13.58,13.58,0,0,0,.84-12.82C1055.87,854.27,1053.11,847.74,1048.2,843Z" style="fill: rgb(255, 171, 145);"/><path class="cls-3" d="M1049,889.73c.13-.26.26-.51.38-.77l7.5-14.91c.08-.15.15-.3.22-.45-5-9.49-7.32-21.1-16.48-23.43-10.91-2.89-22.3,2.74-34.37,5.19a23.5,23.5,0,0,0-3.69,10c7.07,8.92,12.93,18.27,20.83,25.47C1030.71,897.2,1039.83,894.64,1049,889.73Z" style="fill: rgb(255, 138, 101);"/><path class="cls-4" d="M1023.35,890.82c-7.9-7.2-13.76-16.55-20.83-25.47a18.4,18.4,0,0,0-.07,3.32c.29,4,1.88,7.72,3.6,11.31a78.93,78.93,0,0,0,7.62,13.07c2.41,3.26,5.35,6.36,9.19,7.63,5.25,1.73,10.92-.3,16.06-2.31a19.83,19.83,0,0,0,6.55-3.55,17.79,17.79,0,0,0,3.49-5.09C1039.83,894.64,1030.71,897.2,1023.35,890.82Z" style="fill: rgb(255, 112, 67);"/><path class="cls-2" d="M1087.8,872.73c-4.28-4.14-10.52-6.63-16.27-5.58-2.25-.29-4.67.93-6.72,2.14-5.61,3.3-11.26,6.74-15.68,11.5a30.87,30.87,0,0,0-3.32,4.29c12.07-2.44,23.46-8.07,34.37-5.19,9.16,2.33,11.53,13.94,16.49,23.43a13.61,13.61,0,0,0,.83-12.81C1095.47,884,1092.71,877.46,1087.8,872.73Z" style="fill: rgb(255, 171, 145);"/><path class="cls-3" d="M1088.56,919.45l.39-.76,7.49-14.92.23-.45c-5-9.49-7.33-21.1-16.49-23.43-10.91-2.88-22.3,2.75-34.37,5.19a23.59,23.59,0,0,0-3.69,10c7.07,8.92,12.93,18.27,20.83,25.46C1070.31,926.92,1079.43,924.37,1088.56,919.45Z" style="fill: rgb(255, 138, 101);"/><path class="cls-4" d="M1063,920.54c-7.9-7.19-13.76-16.54-20.83-25.46a18.27,18.27,0,0,0-.07,3.31c.29,4,1.88,7.73,3.6,11.32a79.34,79.34,0,0,0,7.62,13.07c2.41,3.25,5.35,6.35,9.19,7.62,5.25,1.73,10.92-.3,16.06-2.3a20,20,0,0,0,6.56-3.56,17.76,17.76,0,0,0,3.48-5.09C1079.43,924.37,1070.31,926.92,1063,920.54Z" style="fill: rgb(255, 112, 67);"/><path class="cls-2" d="M1054.38,899.8c-4.29-4.13-10.52-6.63-16.27-5.58-2.25-.28-4.68.94-6.73,2.15-5.61,3.29-11.25,6.73-15.67,11.5a29.42,29.42,0,0,0-3.32,4.29c12.07-2.45,23.46-8.08,34.36-5.19,9.17,2.33,11.53,13.94,16.49,23.43a13.65,13.65,0,0,0,.84-12.82C1062.05,911.06,1059.29,904.54,1054.38,899.8Z" style="fill: rgb(255, 171, 145);"/><path class="cls-3" d="M1055.14,946.53l.38-.77,7.5-14.91.22-.45c-5-9.49-7.32-21.1-16.49-23.43-10.9-2.89-22.29,2.74-34.36,5.19a23.37,23.37,0,0,0-3.69,10c7.07,8.92,12.93,18.27,20.82,25.47C1036.88,954,1046,951.44,1055.14,946.53Z" style="fill: rgb(255, 138, 101);"/><path class="cls-4" d="M1029.52,947.62c-7.89-7.2-13.75-16.55-20.82-25.47a18.4,18.4,0,0,0-.07,3.32c.28,4,1.87,7.72,3.59,11.31a79.69,79.69,0,0,0,7.63,13.07c2.4,3.26,5.35,6.36,9.19,7.63,5.25,1.73,10.91-.3,16.06-2.31a19.83,19.83,0,0,0,6.55-3.55,17.79,17.79,0,0,0,3.49-5.09C1046,951.44,1036.88,954,1029.52,947.62Z" style="fill: rgb(255, 112, 67);"/><path class="cls-3" d="M998,856c4.77,1,9.4-1.07,13.16-4.55.15-.2.31-.4.45-.6a16,16,0,0,0,2.93-5.55,10.35,10.35,0,0,0,.24-3.23c-1.71-6.65-5-12.69-11.61-14.48-5.37-1.88-10.57,2.11-16.13,4.79a3.06,3.06,0,0,1-.55,1.27,12.4,12.4,0,0,0-1.5,2.74,10.25,10.25,0,0,0-.35,4.2C989,846.78,991.13,855,998,856Z" style="fill: rgb(255, 138, 101);"/><path class="cls-4" d="M998,856c-6.89-1-9.06-9.24-13.36-15.41,0,.1,0,.2,0,.3.72,8.21,4.61,16.5,11.63,20.82a6,6,0,0,0,3.29,1.12c1.85-.08,3.29-1.57,4.52-3,2.43-2.74,4.86-5.49,7.06-8.42C1007.42,855,1002.79,857,998,856Z" style="fill: rgb(255, 112, 67);"/><path class="cls-2" d="M1003.19,827.61c6.6,1.79,9.9,7.83,11.61,14.48a22.28,22.28,0,0,0-2.51-7.92,22,22,0,0,0-4.51-6.74,8.74,8.74,0,0,0-7.46-2.48c-2.12.43-3.88,1.86-5.9,2.62-1.24.47-2.56.68-3.8,1.14a5.14,5.14,0,0,0-3,2.41,3.15,3.15,0,0,0-.56,1.28C992.62,829.72,997.82,825.73,1003.19,827.61Z" style="fill: rgb(255, 171, 145);"/><path class="cls-2" d="M633.33,918.46a5.94,5.94,0,0,0-2-.6,18.71,18.71,0,0,0-3.33.92Z" style="fill: rgb(255, 171, 145);"/><path class="cls-2" d="M650.53,899.44c-5.72-5.53-14.06-8.86-21.75-7.46-3-.38-6.25,1.25-9,2.87-7.5,4.41-15,9-21,15.38a39.87,39.87,0,0,0-4.44,5.73c16.14-3.27,31.36-10.8,46-6.94,12.25,3.12,15.42,18.64,22,31.33a23.47,23.47,0,0,0,2.57-7.1c.47-3.38-.44-6.78-1.46-10C660.79,914.5,657.1,905.78,650.53,899.44Z" style="fill: rgb(255, 171, 145);"/><path class="cls-3" d="M651.55,961.92l.51-1q5-10,10-19.95l.3-.6c-6.63-12.69-9.8-28.21-22-31.33-14.59-3.86-29.81,3.67-46,6.94a31.35,31.35,0,0,0-4.93,13.36c9.45,11.93,17.29,24.43,27.84,34C627.14,971.91,639.34,968.49,651.55,961.92Z" style="fill: rgb(255, 138, 101);"/><path class="cls-4" d="M617.3,963.37c-10.55-9.62-18.39-22.12-27.84-34a24.37,24.37,0,0,0-.1,4.44c.38,5.31,2.51,10.33,4.81,15.13a106.12,106.12,0,0,0,10.19,17.47c3.22,4.35,7.16,8.5,12.29,10.2,7,2.31,14.6-.4,21.48-3.08,3.11-1.22,6.31-2.48,8.76-4.76a23.76,23.76,0,0,0,4.66-6.8C639.34,968.49,627.14,971.91,617.3,963.37Z" style="fill: rgb(255, 112, 67);"/><path class="cls-2" d="M680.2,882.22c-4.28-4.13-10.52-6.63-16.27-5.58-2.25-.28-4.67.94-6.73,2.15-5.6,3.29-11.25,6.73-15.67,11.5a30.87,30.87,0,0,0-3.32,4.29c12.07-2.45,23.46-8.08,34.37-5.19,9.16,2.33,11.53,13.94,16.48,23.43A13.58,13.58,0,0,0,689.9,900C687.87,893.48,685.11,887,680.2,882.22Z" style="fill: rgb(255, 171, 145);"/><path class="cls-3" d="M681,929c.13-.26.26-.51.38-.77l7.5-14.91c.08-.15.15-.3.22-.45-4.95-9.49-7.32-21.1-16.48-23.43-10.91-2.89-22.3,2.74-34.37,5.19a23.5,23.5,0,0,0-3.69,10c7.07,8.92,12.93,18.27,20.83,25.47C662.71,936.42,671.83,933.86,681,929Z" style="fill: rgb(255, 138, 101);"/><path class="cls-4" d="M655.35,930c-7.9-7.2-13.76-16.55-20.83-25.47a18.4,18.4,0,0,0-.07,3.32c.29,4,1.88,7.72,3.6,11.31a78.93,78.93,0,0,0,7.62,13.07c2.41,3.26,5.35,6.36,9.19,7.63,5.25,1.73,10.92-.3,16.06-2.31a19.83,19.83,0,0,0,6.55-3.55A17.79,17.79,0,0,0,681,929C671.83,933.86,662.71,936.42,655.35,930Z" style="fill: rgb(255, 112, 67);"/><path class="cls-3" d="M630,895.24c4.77,1,9.4-1.07,13.16-4.55.15-.2.31-.4.45-.6a16,16,0,0,0,2.93-5.55,10.35,10.35,0,0,0,.24-3.23c-1.71-6.65-5-12.69-11.61-14.48-5.37-1.88-10.57,2.11-16.13,4.79a3.06,3.06,0,0,1-.55,1.27,12.4,12.4,0,0,0-1.5,2.74,10.24,10.24,0,0,0-.35,4.2C621,886,623.13,894.19,630,895.24Z" style="fill: rgb(255, 138, 101);"/><path class="cls-4" d="M630,895.24c-6.89-1-9.06-9.24-13.36-15.41a2.64,2.64,0,0,0,0,.29c.72,8.22,4.61,16.5,11.63,20.83a6,6,0,0,0,3.29,1.11c1.85-.07,3.29-1.56,4.52-2.95,2.43-2.74,4.86-5.49,7.06-8.42C639.42,894.17,634.79,896.19,630,895.24Z" style="fill: rgb(255, 112, 67);"/><path class="cls-2" d="M635.19,866.83c6.6,1.79,9.9,7.83,11.61,14.48a22.28,22.28,0,0,0-2.51-7.92,21.84,21.84,0,0,0-4.51-6.74,8.74,8.74,0,0,0-7.46-2.48c-2.12.43-3.88,1.86-5.9,2.62-1.24.47-2.56.68-3.8,1.14a5.14,5.14,0,0,0-3,2.41,3.15,3.15,0,0,0-.56,1.28C624.62,868.94,629.82,865,635.19,866.83Z" style="fill: rgb(255, 171, 145);"/></g></svg>